<mxfile host="Electron" modified="2024-04-24T15:37:40.687Z" agent="Mozilla/5.0 (Windows NT 10.0; Win64; x64) AppleWebKit/537.36 (KHTML, like Gecko) draw.io/24.2.5 Chrome/120.0.6099.109 Electron/28.1.0 Safari/537.36" etag="QACj-EyoOWgVo0xMFLzw" scale="1" border="10" version="24.2.5" type="device">
  <diagram name="Page-1" id="KG3McziWTwCD19KJNF4W">
    <mxGraphModel dx="1050" dy="631" grid="1" gridSize="10" guides="1" tooltips="1" connect="1" arrows="1" fold="1" page="1" pageScale="1" pageWidth="850" pageHeight="1100" math="0" shadow="0">
      <root>
        <mxCell id="0" />
        <mxCell id="1" parent="0" />
        <mxCell id="OpV2UFvNa62Xhtrnb1xq-9" value="" style="group" parent="1" vertex="1" connectable="0">
          <mxGeometry x="265.5" y="280" width="99" height="100" as="geometry" />
        </mxCell>
        <mxCell id="OpV2UFvNa62Xhtrnb1xq-3" value="" style="shape=image;verticalLabelPosition=bottom;labelBackgroundColor=default;verticalAlign=top;aspect=fixed;imageAspect=0;image=data:image/png,iVBORw0KGgoAAAANSUhEUgAAAGMAAABFCAYAAABezli+AAATyElEQVR4Ae1ch3tTR7bffwtb7mAgQNouycvb5GV3syQE3iNZeIGXJbsUY1uyZFNDLyYhYEwIEIot6cpdLrJlC/eCe++9yCq//c6MRpKFjIpl8Ob5+pvv6vaZ8zttzjnj32F9WzMU+N2a6cl6R7AOxhpignUw1sFYQxRYQ135N5YMO5b7A+xriMT+d2XNg8EIbrfDzpoNdjs138Tm94vnXHv/SfP671zTYLgIygGgY6vNjAXLDGYWxjE5N4jx2T6MzvRgdKYbY7O9mJjrx9T8CObMU1i0zsNmt7oBubZBWZNgENFtDgmg3xbrAiN663AZStpv4Entd7hdcQA3SvfiavFuXNLvwiX9X3Gl+HNcK/kSPxi+wn3TIeiaUlHTm4WByRbMmSecUsWly7eEkVS+TpW3xsAgznWpIovNjN7xOmjqU3GhaDuSpY04oY5EsjoMCk0slNJmKKUtUOnecjY6TtFuglwTiUS1DCc0MUjL24IM417U9KgxYx51SAoBbmV2ZzmF9P8WDK6SbLDZrFiwTKN9tBSPqo9DpYvHsSwZ5GoZVNJmpOrioZSikaKNQIo2fJkmg1IbBZUUh1QdgROHE2oZjmXLcK34E5R13MXYbDestkXY3KSQQOH94Ops0TLnVHPLARbK829cMoj7SCVRI+J0jVXhaZ0CJ3M3I1EdA4UmBkopzkl8hTYc1JYHwnXNdZ8MSikGSm0ckjTRkEuxuFH6Bco7MzA5NwC73crVIsmJQzIXFmdQ1n4Dk/ND7NzrUFdvFAwhDbQ3W6ZR0XkP3xfuhFy7ESmsRSFFK/Ob+K8CyAViJFK00VBoNyJJE4sM437GAFabxSEl3OA3DxQjNX8nescbnA5AKKXA27veGBguIGyYnOvHrzVHcDQ7DAptNFNDLq52cfqriB3INQFMqm4rEtXhOJm3jRl6JqE2G2bNo7hj3IMkaQue9/7qUGc2b/QL6bk3AoYLCDsGp5qRWbWXGWalRBIRGRJJ8AccAkWpjUYSqUOtDMWtNzFrHkNR6008qvkOZR03kd2QgLnFKactCSn1PV722sFwn8QNT7/AHeNuKKQYpGg5QVZTIrwBxL8XiWRNFJS6GDyq/g43DZ+jb6IRg9NN+OX53zE6283AIMlZze31g+GYTU/M9eCm4T0kacgrIu/If8PsjaihOKeStjLGKO/8CWRDphdG8aj6MFqGi357YJB6Iu6aXhjEg+qDSMgmd5U8pdDbhUDfyT0tGTSNiZhfnILFugiL1Yy8F+dQ0HKNCQRXr75DMcFKz2uTDKGeKEShb7sBpbQVKmnja7MPy4ND3hp5VzI8rUvAFHNlHRNCuw2Ng/n4uWo/C638tsCAHa0jxTiVvwOJ6kjINdyAvnoCt5pSEwG5Jhoq3SYUtV7EnHnSaaiJ8FabFSPT3Ug3fIzByVbntWA539dzqy4ZnJtccaAXg3qo60/ivukgzhZE4EjWBpzIDkOKhuYUq0n4pe+mGXpidhjScrejtu8ZKPQiOJ+HQcDsBs3C75m+RE2v5qXrvogb6PVVAIMpJJ5rsNtYkG/WLCKsvRid6cTobBfG53owONWE+n4JT2r+iXMFO5lbS9Ki0CwlXOhAkrF3yzUyqHRbcN+0DwOTjWwGTkB4bnw2bkdhazqe1CbCZrc4AfG8NxTHIQRDRDi5vh2b7UF9vxq5LSrmHv5g+B9cK/0CV4r/hKsln+F66R7cKt+PJ3XHUfjiPIrb0vG0/hjOF7wPuYYCgSsFRMZm72wGrwlnKjExOxypuhjcqzrIpGF+0aGWHGkqT4ISQORwvBgqw7XSD1jYXkiP572hOA4JGFysORhjM93Ib7mAi/qdUOrimWFUaGkeEYsUKRb0mx+TFxUHhTaKGVBV7nbcrtiLxzV/x8WiHYx43iWCiEwhDVJrotExNXKTIxzcH44kdRhOOFpqTjQemP6BlsECNrFz5TkEE71MTgHGxHwfzhfFY2Bide3GisAQXEJ7Ck2Xd9zFydxYHMsKY5M4JQGgJeL54nKKsG7EiawwKKRoXNLvQKouwulpKTQyZlMUGjL6MkZkIjQ1CmckqiOQmE0h8ygkqaMh18YhNWczLhe/jwfP/w+GjjvonahlNsDVZ5rAvaya3CHh99pgtS/iB8NnqO/Pcapf9/tC9TtoMERHicP6JuqZQVYQ52sotkQg+ALA23UCgDwcApNApN+RSFLLINfKcCr3bVws+hg/GvbgXuUBPKo+hKe1R6BrOgN96y2UtWeiqusBmgby0T1Wg4m5XixaZx16nudJ+Cz61SAI4gp3nMb6tEYJfes1R0jd5ZCIe0OxDxoMGhSlQBsGJFwo+hhypopIHYUiyspVzonscOZ23q74GvrWq3gxXISBqSaWWiWngHQ+5T4sLL1KxpUirpxQ1D9q4ljsfRNNqC2+F8+VtN7F/effvOT+ElCh2oICg6SBWtOgDqqc7VBqKYETmgCfUktxogim63+u+gatw8WM4JR04tLIjSqFK3jYm/eFE82d+O75bn8Ixu8ncBetc+xbpMY4oHa0DJYgNScKD0yH0TZkgMU2z+6h66HaAgKDiCE61zlWicv6Txx5h5UBIULaHNBYXNH/Ac97nmDewqOlPBvnRnQfuj5Q4giQKbnVP1nP8uWcyK7x9k00QaWLw/EsGZK0EXj4/Ai6RisdRQ9CbfkD+vK9CwAMF6dNzPXhR8MuFukkj2alkVZ6nkLZCm0cMoxfo3vc5OQ6oSaWH8LKr4hvTM0PonW4yFlVQm8WzDc604GzeW+zPlKEOVkTg+8L/gB9202mLsV9K+mN32AIqTBbZ6FpUDIPhgz1SoEgQ6/UxiAxOwJ3KvZhaLqFhSEEgXx5PCsZPD0rpIL2lV0P0DZscALAr3Oun1rox4XC/0SymuwZd6+JeZK08Xhc+x2mF0aWPBdMvwIAg3eqbcSARA3llCkR5M0j8v8cB5LnEi7p32GzcwG6CEkEM6hAnhFg9I7X455pL4vYCvvkDsbc4iiuFH2GJDUvhKC+U1NJ8TiaFYZH1d+y+QvZMXpnMJtfYHAXj9KR4/i1+igSsiKY+7pSqeADisbp3O1oHsx3U03BDSZQAgjXdXphCPdNX6OhP89ZkCAkUoBltk7jmn6PA4ylcycqmJBr41H44rqHDQmsR/6B4XARu8YqcbZgJ1TSltCoJ4nsRDTUDSmsSjAUejeQ4ROhzZY55LVcwcPqw14JKcBYsEzgqv4Lp2R4agWakJ7K24GWIT1nKlvgXpbfYJCnUdpxHQopkpXOrFQqaDAk4ifz3kPbSCnjSO7BBELO4O8VwNf1ZeF80bvoGDM4JVNIBb1d2K5p8yAuFf4XkpjN8KaKI1jR3PWSv3BX3DHfCaSHPsEQnDFvmcbD6qMs1ODJFcEdU2VgBNINfwUFFcl9fR12gsZDQBBz9U6acK7wPWTVn4TZMsvmTp7EE6CNzLTjTN7bDg/SGxgUbZYhITsMlZ0PHaEX4fJ6vtX7sd9gUMj7WslnrN4oNFLBY1jZ9YlYWJzySgjvXV7ZWSIu5S6ah3JxOv893CjbjeGZNjdbsfT9AoyesVqodNGQvyLvQhNWihqkl/0Zk/ODrDqSwPd38xuM3okanM57yxF19c4ZgUgI5ZzJCzF23mN5AprRr+ZGUickonFQiwtFHyBZE4YXQ0VOLvb2fQHG8+5nSGKh/VeXlZJ0pOZsRduIkUt7SMFwxDap00qJvIiVT/I4aNGsIKFhIJd9gXTzamxCzQr1VNP7lI0jITscpu5fmZ3g3PsyB7s/q647B3rGV4qYItWJ6miUtN9isTtydf3dfEqGeFFjfx7krKwmFOlRyrhFI0EtYxFWMpirAYZwXSmXPTk/gLyWy1BIFAGOQ17LJadxXs5WCQDnF8fxg2EXTmTzyd6rNIBKimFxNaqQpDUiqwJGQ38uC+DxhM7K1RSFFI5nh6O2T01Bh5CCwUBwZO8I5NZhPe5W7keKtImFMbQNp5csDRAM57kXYLSPGCGXIlglvK/8DNkNyrP8VP41JueGWDTB3Tvz/Ib7sU/JIOGl1jxQwLJ2oQKDZvBHssJQ3hE6m7EEBNjZjDi3+QJUOTQvIvBlkBrPMIdBqCB3Ynj+JjtGxl5qPIejzzawsM2rpIJfi0CyWoYbJXswNtvH7FTowHBUANKE72QOpUopbbpyyaC41rGsDciuC86b8iS8UDVEQKqXre/X4mrJBwwASu+mSBtR1JoOu59FBQQWqTda9fR9wQdIVlMMjeJSvsYuY+qcVlCNzfSuDhgjM224WPhHFrUMBRgULqegW3rZX9h6POG1eHKn69gVNWZcLdQQszc0k57F0FQrKnsycdt4AErdRpYllGticanoIxi7fmaVKmIS53rvy7+EejJbaXZ+GfQOvkbEFxB0nSQjHOmle9nSNxpXyCWD4lIZlQfZPMM3d/jT6XAopU1Iy92BxsEcNs8gTnTfGPcvyda5AKEBUqaRFrs09hfgSW0CLug/gUpH2cYtbHKWrJEh03gI3eNVWLQuuHlO7l/x/G13zg86RytwvvD3Dnd+aTxqORpQKiBRHYYM4wG20JOP6WVPzfOrdOyHzeAKgQaT03yK5aipAGy5zgR2nlf0ZVYewtwiLYCkuQBPnQpJYVLgUJXUYcrCjUx3or4vB09qT+BU/hYcfkqFCdFI073L1Cipv7MF76Cs/Q5sdjNTFeJ93oggztFI6T5q85YJ/GjYy1Y6sYoTn+qJM6BKimVL1tQNKiatIfemBJEaByWk5m4DLTIJhari74hixQZZdQpMLQw7waBwxcLiNON8WmRJVX85TZfxU/lXSMuJwglNFBKyac4Th1Rph0N9xuJ84YfQNqRhYKrZMZnjBBYE97YXgBMIRLzx2W5kVn7L14ywpJd/ks4ZMRrJ2jiYep6wsQQymfUpGdR50dnxuV7cKqcwcgxSpJVP/jgYJP7kFETibuU3qOtTo3mwEIbODDyrO46bhn04k/cfSJFkSNbEQq7ZDKV2IxSaOCSpN7LKkbTcbcgw/i9K239k6ypIegSHU9+X24QkcDtCEmFF+6gBd4wHkKyJY+sAqY/+Mx73pE7lbWfVKTZbiGNTYiDUYSpvNHU/Yi6pUqICtUA4xvu9PLgWjiRNOI5lhyNREw+5tBWJjPAUetiCNN12nMzZzorejmdH4mgWhRzikFFxEPoXt9A+YsCMeYS5oRwEV/EC7z9XtYL4pMepCSajPWXqytrv4lzB21BI8c4Ci8DGGMkChZmVBxypWP4NQUNfe78kg15CHaaB0nq3DOOXbDZKK0gD66wnINFQ6mLxrC4ZzQN6GDoycbnoI9CilTTdFra2j2pvj2eF45/PoqDQbcYd4z6Utt9Fz1gd08lkyIn5rTaq6zUzNSOITXvidg4Qv48DwNWR2TLPlrFVdP6CG6Wf4h/PNiCF6r6CCvmQS0sFdpGskoS+Sd8KZPMfDIcLSR/oHjPhbP7vmctH6xqCAYTPVCNwq3w3D6HbeFi7ous2VLqNjqp0Gc7kxeN2xX8jv/kaGgfyWLH0GPv3FF1sLTcVR9CaCuLsGfMYZhfGWXUH/UeEWfMEZhZGWQSVwvRDU23oGa9h76H1e79UJeD7gp2s2oOWKKxoTSEDIhyPqxNgsS0wBlg1MNylg9SVses+UnVvMfeUwAgUEPI6jmdtwJPaw8yTWrQswGazo3PUiNN57yOFrf+OwMWid5Bh/Bsyq/bjB8NuXC/9AtdLd7FwfrphF34s3407xr3IrNqHn01f4X7VfjwwHcLD59/iF9M3uGf6CreNe5FetgsXij7FmfwPodJtRzKrVKSQOFU/knfIy40CHYfwHmmdx5XiTzE0TeF4306DN4nxWzLEw+JD5OnkNKchQR3JQAkckEjI1ZG4XvpnjEx3sAFQ6KG0PR0pNFfQUEo2nE2gjmWRqiL3NQxyNcWIqOY2Askaus5rbmmNBzVK7rg3OkfPUYiCLfDXbmJpYyYFLPDJVWewIBAYlLFM0W1DXb/W6UGRfQp0CxgM+gAzh1TsvDDKluYma6hSZFPA3MVqpaRo/Gw6iMquX6BrOodTudsc0WFhX6gSJRoUDeXhCApJuBrpd9YkqvGNAUnc0kbPcc4XQT7BOCsBgL+DHIxNkEvxqOi653Aglk5cAwEkKDAYII6JGNW7kkt5tuBDJLOiZ/6vJcSAhRgvtydvijhcTlLA1lG8KnkjAFp+L74r9st9N9jz9F4ClWJrydoonCv4CFXdD5yeXKB2wh2s4MFwM+j0L4g6RsuRWfk3HM0i9REJlcQlhQbtkzBU8k/c66Y2giVWqJ9b2ncaF4950T+XuV2xB13jJufkciVAEChBg+FC1OXDU22sqesxLunfRYI6iulpJdPRm5gKSdFEQqGhxSzeGul0b+ff3DnqL1N9OrIzm1hgk2zkuYJNqOh4wEM4DqZ00SP4XyEAw2FDmMEio2VnriSt1cuqP4b0st04V/BH7nmx0AIZZpq9r/1GQKTlvIXTuR/gWunneFp3FNU9T1nWkJOcM2Lw5F/6ZEjAEB0jIHjj9UYUlqB0Z/9kE1qGClDd+xSm7ieo6n78b9Fqep/hxXAhqDJkfLaXTTIpEuEap2u8S8ka3FEIwfDWAcE5IvTN06siFrT2945+O5lMuKuhBUFQbpXBEJ+hvRiAGJD7Nc/rnve4H3t7j/s5z3vd3+3+Tc9nxLG4x/094tzq7l8jGKs7kN/C29fBWEMoroOxDsYaosAa6sq6ZKyDsYYosIa6si4Z62CsIQqsoa78C4Jau84W19zUAAAAAElFTkSuQmCC;" parent="OpV2UFvNa62Xhtrnb1xq-9" vertex="1">
          <mxGeometry x="-1" width="99" height="69" as="geometry" />
        </mxCell>
        <mxCell id="OpV2UFvNa62Xhtrnb1xq-6" value="&lt;b&gt;Spring Cloud API Gateway&lt;/b&gt;" style="text;strokeColor=none;align=center;fillColor=none;html=1;verticalAlign=middle;whiteSpace=wrap;rounded=0;" parent="OpV2UFvNa62Xhtrnb1xq-9" vertex="1">
          <mxGeometry x="9.5" y="50" width="80" height="50" as="geometry" />
        </mxCell>
        <mxCell id="sfzHv9pNvOCN-W0HhA9W-14" value="" style="endArrow=classic;html=1;rounded=0;entryX=0;entryY=0.5;entryDx=0;entryDy=0;edgeStyle=orthogonalEdgeStyle;" edge="1" parent="OpV2UFvNa62Xhtrnb1xq-9" target="sfzHv9pNvOCN-W0HhA9W-2">
          <mxGeometry width="50" height="50" relative="1" as="geometry">
            <mxPoint x="84.5" y="50" as="sourcePoint" />
            <mxPoint x="134.5" as="targetPoint" />
          </mxGeometry>
        </mxCell>
        <mxCell id="OpV2UFvNa62Xhtrnb1xq-10" value="" style="group" parent="1" vertex="1" connectable="0">
          <mxGeometry x="276.99999999999994" y="480" width="99" height="100" as="geometry" />
        </mxCell>
        <mxCell id="OpV2UFvNa62Xhtrnb1xq-7" value="" style="shape=image;verticalLabelPosition=bottom;labelBackgroundColor=default;verticalAlign=top;aspect=fixed;imageAspect=0;image=data:image/png,iVBORw0KGgoAAAANSUhEUgAAAGMAAABFCAYAAABezli+AAATyElEQVR4Ae1ch3tTR7bffwtb7mAgQNouycvb5GV3syQE3iNZeIGXJbsUY1uyZFNDLyYhYEwIEIot6cpdLrJlC/eCe++9yCq//c6MRpKFjIpl8Ob5+pvv6vaZ8zttzjnj32F9WzMU+N2a6cl6R7AOxhpignUw1sFYQxRYQ135N5YMO5b7A+xriMT+d2XNg8EIbrfDzpoNdjs138Tm94vnXHv/SfP671zTYLgIygGgY6vNjAXLDGYWxjE5N4jx2T6MzvRgdKYbY7O9mJjrx9T8CObMU1i0zsNmt7oBubZBWZNgENFtDgmg3xbrAiN663AZStpv4Entd7hdcQA3SvfiavFuXNLvwiX9X3Gl+HNcK/kSPxi+wn3TIeiaUlHTm4WByRbMmSecUsWly7eEkVS+TpW3xsAgznWpIovNjN7xOmjqU3GhaDuSpY04oY5EsjoMCk0slNJmKKUtUOnecjY6TtFuglwTiUS1DCc0MUjL24IM417U9KgxYx51SAoBbmV2ZzmF9P8WDK6SbLDZrFiwTKN9tBSPqo9DpYvHsSwZ5GoZVNJmpOrioZSikaKNQIo2fJkmg1IbBZUUh1QdgROHE2oZjmXLcK34E5R13MXYbDestkXY3KSQQOH94Ops0TLnVHPLARbK829cMoj7SCVRI+J0jVXhaZ0CJ3M3I1EdA4UmBkopzkl8hTYc1JYHwnXNdZ8MSikGSm0ckjTRkEuxuFH6Bco7MzA5NwC73crVIsmJQzIXFmdQ1n4Dk/ND7NzrUFdvFAwhDbQ3W6ZR0XkP3xfuhFy7ESmsRSFFK/Ob+K8CyAViJFK00VBoNyJJE4sM437GAFabxSEl3OA3DxQjNX8nescbnA5AKKXA27veGBguIGyYnOvHrzVHcDQ7DAptNFNDLq52cfqriB3INQFMqm4rEtXhOJm3jRl6JqE2G2bNo7hj3IMkaQue9/7qUGc2b/QL6bk3AoYLCDsGp5qRWbWXGWalRBIRGRJJ8AccAkWpjUYSqUOtDMWtNzFrHkNR6008qvkOZR03kd2QgLnFKactCSn1PV722sFwn8QNT7/AHeNuKKQYpGg5QVZTIrwBxL8XiWRNFJS6GDyq/g43DZ+jb6IRg9NN+OX53zE6283AIMlZze31g+GYTU/M9eCm4T0kacgrIu/If8PsjaihOKeStjLGKO/8CWRDphdG8aj6MFqGi357YJB6Iu6aXhjEg+qDSMgmd5U8pdDbhUDfyT0tGTSNiZhfnILFugiL1Yy8F+dQ0HKNCQRXr75DMcFKz2uTDKGeKEShb7sBpbQVKmnja7MPy4ND3hp5VzI8rUvAFHNlHRNCuw2Ng/n4uWo/C638tsCAHa0jxTiVvwOJ6kjINdyAvnoCt5pSEwG5Jhoq3SYUtV7EnHnSaaiJ8FabFSPT3Ug3fIzByVbntWA539dzqy4ZnJtccaAXg3qo60/ivukgzhZE4EjWBpzIDkOKhuYUq0n4pe+mGXpidhjScrejtu8ZKPQiOJ+HQcDsBs3C75m+RE2v5qXrvogb6PVVAIMpJJ5rsNtYkG/WLCKsvRid6cTobBfG53owONWE+n4JT2r+iXMFO5lbS9Ki0CwlXOhAkrF3yzUyqHRbcN+0DwOTjWwGTkB4bnw2bkdhazqe1CbCZrc4AfG8NxTHIQRDRDi5vh2b7UF9vxq5LSrmHv5g+B9cK/0CV4r/hKsln+F66R7cKt+PJ3XHUfjiPIrb0vG0/hjOF7wPuYYCgSsFRMZm72wGrwlnKjExOxypuhjcqzrIpGF+0aGWHGkqT4ISQORwvBgqw7XSD1jYXkiP572hOA4JGFysORhjM93Ib7mAi/qdUOrimWFUaGkeEYsUKRb0mx+TFxUHhTaKGVBV7nbcrtiLxzV/x8WiHYx43iWCiEwhDVJrotExNXKTIxzcH44kdRhOOFpqTjQemP6BlsECNrFz5TkEE71MTgHGxHwfzhfFY2Bide3GisAQXEJ7Ck2Xd9zFydxYHMsKY5M4JQGgJeL54nKKsG7EiawwKKRoXNLvQKouwulpKTQyZlMUGjL6MkZkIjQ1CmckqiOQmE0h8ygkqaMh18YhNWczLhe/jwfP/w+GjjvonahlNsDVZ5rAvaya3CHh99pgtS/iB8NnqO/Pcapf9/tC9TtoMERHicP6JuqZQVYQ52sotkQg+ALA23UCgDwcApNApN+RSFLLINfKcCr3bVws+hg/GvbgXuUBPKo+hKe1R6BrOgN96y2UtWeiqusBmgby0T1Wg4m5XixaZx16nudJ+Cz61SAI4gp3nMb6tEYJfes1R0jd5ZCIe0OxDxoMGhSlQBsGJFwo+hhypopIHYUiyspVzonscOZ23q74GvrWq3gxXISBqSaWWiWngHQ+5T4sLL1KxpUirpxQ1D9q4ljsfRNNqC2+F8+VtN7F/effvOT+ElCh2oICg6SBWtOgDqqc7VBqKYETmgCfUktxogim63+u+gatw8WM4JR04tLIjSqFK3jYm/eFE82d+O75bn8Ixu8ncBetc+xbpMY4oHa0DJYgNScKD0yH0TZkgMU2z+6h66HaAgKDiCE61zlWicv6Txx5h5UBIULaHNBYXNH/Ac97nmDewqOlPBvnRnQfuj5Q4giQKbnVP1nP8uWcyK7x9k00QaWLw/EsGZK0EXj4/Ai6RisdRQ9CbfkD+vK9CwAMF6dNzPXhR8MuFukkj2alkVZ6nkLZCm0cMoxfo3vc5OQ6oSaWH8LKr4hvTM0PonW4yFlVQm8WzDc604GzeW+zPlKEOVkTg+8L/gB9202mLsV9K+mN32AIqTBbZ6FpUDIPhgz1SoEgQ6/UxiAxOwJ3KvZhaLqFhSEEgXx5PCsZPD0rpIL2lV0P0DZscALAr3Oun1rox4XC/0SymuwZd6+JeZK08Xhc+x2mF0aWPBdMvwIAg3eqbcSARA3llCkR5M0j8v8cB5LnEi7p32GzcwG6CEkEM6hAnhFg9I7X455pL4vYCvvkDsbc4iiuFH2GJDUvhKC+U1NJ8TiaFYZH1d+y+QvZMXpnMJtfYHAXj9KR4/i1+igSsiKY+7pSqeADisbp3O1oHsx3U03BDSZQAgjXdXphCPdNX6OhP89ZkCAkUoBltk7jmn6PA4ylcycqmJBr41H44rqHDQmsR/6B4XARu8YqcbZgJ1TSltCoJ4nsRDTUDSmsSjAUejeQ4ROhzZY55LVcwcPqw14JKcBYsEzgqv4Lp2R4agWakJ7K24GWIT1nKlvgXpbfYJCnUdpxHQopkpXOrFQqaDAk4ifz3kPbSCnjSO7BBELO4O8VwNf1ZeF80bvoGDM4JVNIBb1d2K5p8yAuFf4XkpjN8KaKI1jR3PWSv3BX3DHfCaSHPsEQnDFvmcbD6qMs1ODJFcEdU2VgBNINfwUFFcl9fR12gsZDQBBz9U6acK7wPWTVn4TZMsvmTp7EE6CNzLTjTN7bDg/SGxgUbZYhITsMlZ0PHaEX4fJ6vtX7sd9gUMj7WslnrN4oNFLBY1jZ9YlYWJzySgjvXV7ZWSIu5S6ah3JxOv893CjbjeGZNjdbsfT9AoyesVqodNGQvyLvQhNWihqkl/0Zk/ODrDqSwPd38xuM3okanM57yxF19c4ZgUgI5ZzJCzF23mN5AprRr+ZGUickonFQiwtFHyBZE4YXQ0VOLvb2fQHG8+5nSGKh/VeXlZJ0pOZsRduIkUt7SMFwxDap00qJvIiVT/I4aNGsIKFhIJd9gXTzamxCzQr1VNP7lI0jITscpu5fmZ3g3PsyB7s/q647B3rGV4qYItWJ6miUtN9isTtydf3dfEqGeFFjfx7krKwmFOlRyrhFI0EtYxFWMpirAYZwXSmXPTk/gLyWy1BIFAGOQ17LJadxXs5WCQDnF8fxg2EXTmTzyd6rNIBKimFxNaqQpDUiqwJGQ38uC+DxhM7K1RSFFI5nh6O2T01Bh5CCwUBwZO8I5NZhPe5W7keKtImFMbQNp5csDRAM57kXYLSPGCGXIlglvK/8DNkNyrP8VP41JueGWDTB3Tvz/Ib7sU/JIOGl1jxQwLJ2oQKDZvBHssJQ3hE6m7EEBNjZjDi3+QJUOTQvIvBlkBrPMIdBqCB3Ynj+JjtGxl5qPIejzzawsM2rpIJfi0CyWoYbJXswNtvH7FTowHBUANKE72QOpUopbbpyyaC41rGsDciuC86b8iS8UDVEQKqXre/X4mrJBwwASu+mSBtR1JoOu59FBQQWqTda9fR9wQdIVlMMjeJSvsYuY+qcVlCNzfSuDhgjM224WPhHFrUMBRgULqegW3rZX9h6POG1eHKn69gVNWZcLdQQszc0k57F0FQrKnsycdt4AErdRpYllGticanoIxi7fmaVKmIS53rvy7+EejJbaXZ+GfQOvkbEFxB0nSQjHOmle9nSNxpXyCWD4lIZlQfZPMM3d/jT6XAopU1Iy92BxsEcNs8gTnTfGPcvyda5AKEBUqaRFrs09hfgSW0CLug/gUpH2cYtbHKWrJEh03gI3eNVWLQuuHlO7l/x/G13zg86RytwvvD3Dnd+aTxqORpQKiBRHYYM4wG20JOP6WVPzfOrdOyHzeAKgQaT03yK5aipAGy5zgR2nlf0ZVYewtwiLYCkuQBPnQpJYVLgUJXUYcrCjUx3or4vB09qT+BU/hYcfkqFCdFI073L1Cipv7MF76Cs/Q5sdjNTFeJ93oggztFI6T5q85YJ/GjYy1Y6sYoTn+qJM6BKimVL1tQNKiatIfemBJEaByWk5m4DLTIJhari74hixQZZdQpMLQw7waBwxcLiNON8WmRJVX85TZfxU/lXSMuJwglNFBKyac4Th1Rph0N9xuJ84YfQNqRhYKrZMZnjBBYE97YXgBMIRLzx2W5kVn7L14ywpJd/ks4ZMRrJ2jiYep6wsQQymfUpGdR50dnxuV7cKqcwcgxSpJVP/jgYJP7kFETibuU3qOtTo3mwEIbODDyrO46bhn04k/cfSJFkSNbEQq7ZDKV2IxSaOCSpN7LKkbTcbcgw/i9K239k6ypIegSHU9+X24QkcDtCEmFF+6gBd4wHkKyJY+sAqY/+Mx73pE7lbWfVKTZbiGNTYiDUYSpvNHU/Yi6pUqICtUA4xvu9PLgWjiRNOI5lhyNREw+5tBWJjPAUetiCNN12nMzZzorejmdH4mgWhRzikFFxEPoXt9A+YsCMeYS5oRwEV/EC7z9XtYL4pMepCSajPWXqytrv4lzB21BI8c4Ci8DGGMkChZmVBxypWP4NQUNfe78kg15CHaaB0nq3DOOXbDZKK0gD66wnINFQ6mLxrC4ZzQN6GDoycbnoI9CilTTdFra2j2pvj2eF45/PoqDQbcYd4z6Utt9Fz1gd08lkyIn5rTaq6zUzNSOITXvidg4Qv48DwNWR2TLPlrFVdP6CG6Wf4h/PNiCF6r6CCvmQS0sFdpGskoS+Sd8KZPMfDIcLSR/oHjPhbP7vmctH6xqCAYTPVCNwq3w3D6HbeFi7ous2VLqNjqp0Gc7kxeN2xX8jv/kaGgfyWLH0GPv3FF1sLTcVR9CaCuLsGfMYZhfGWXUH/UeEWfMEZhZGWQSVwvRDU23oGa9h76H1e79UJeD7gp2s2oOWKKxoTSEDIhyPqxNgsS0wBlg1MNylg9SVses+UnVvMfeUwAgUEPI6jmdtwJPaw8yTWrQswGazo3PUiNN57yOFrf+OwMWid5Bh/Bsyq/bjB8NuXC/9AtdLd7FwfrphF34s3407xr3IrNqHn01f4X7VfjwwHcLD59/iF9M3uGf6CreNe5FetgsXij7FmfwPodJtRzKrVKSQOFU/knfIy40CHYfwHmmdx5XiTzE0TeF4306DN4nxWzLEw+JD5OnkNKchQR3JQAkckEjI1ZG4XvpnjEx3sAFQ6KG0PR0pNFfQUEo2nE2gjmWRqiL3NQxyNcWIqOY2Askaus5rbmmNBzVK7rg3OkfPUYiCLfDXbmJpYyYFLPDJVWewIBAYlLFM0W1DXb/W6UGRfQp0CxgM+gAzh1TsvDDKluYma6hSZFPA3MVqpaRo/Gw6iMquX6BrOodTudsc0WFhX6gSJRoUDeXhCApJuBrpd9YkqvGNAUnc0kbPcc4XQT7BOCsBgL+DHIxNkEvxqOi653Aglk5cAwEkKDAYII6JGNW7kkt5tuBDJLOiZ/6vJcSAhRgvtydvijhcTlLA1lG8KnkjAFp+L74r9st9N9jz9F4ClWJrydoonCv4CFXdD5yeXKB2wh2s4MFwM+j0L4g6RsuRWfk3HM0i9REJlcQlhQbtkzBU8k/c66Y2giVWqJ9b2ncaF4950T+XuV2xB13jJufkciVAEChBg+FC1OXDU22sqesxLunfRYI6iulpJdPRm5gKSdFEQqGhxSzeGul0b+ff3DnqL1N9OrIzm1hgk2zkuYJNqOh4wEM4DqZ00SP4XyEAw2FDmMEio2VnriSt1cuqP4b0st04V/BH7nmx0AIZZpq9r/1GQKTlvIXTuR/gWunneFp3FNU9T1nWkJOcM2Lw5F/6ZEjAEB0jIHjj9UYUlqB0Z/9kE1qGClDd+xSm7ieo6n78b9Fqep/hxXAhqDJkfLaXTTIpEuEap2u8S8ka3FEIwfDWAcE5IvTN06siFrT2945+O5lMuKuhBUFQbpXBEJ+hvRiAGJD7Nc/rnve4H3t7j/s5z3vd3+3+Tc9nxLG4x/094tzq7l8jGKs7kN/C29fBWEMoroOxDsYaosAa6sq6ZKyDsYYosIa6si4Z62CsIQqsoa78C4Jau84W19zUAAAAAElFTkSuQmCC;" parent="OpV2UFvNa62Xhtrnb1xq-10" vertex="1">
          <mxGeometry width="99" height="69" as="geometry" />
        </mxCell>
        <mxCell id="OpV2UFvNa62Xhtrnb1xq-8" value="&lt;b&gt;Spring Cloud Config Service&lt;/b&gt;" style="text;strokeColor=none;align=center;fillColor=none;html=1;verticalAlign=middle;whiteSpace=wrap;rounded=0;" parent="OpV2UFvNa62Xhtrnb1xq-10" vertex="1">
          <mxGeometry x="3.5" y="50" width="90.5" height="50" as="geometry" />
        </mxCell>
        <mxCell id="sfzHv9pNvOCN-W0HhA9W-16" value="" style="endArrow=classic;html=1;rounded=0;entryX=0;entryY=0.5;entryDx=0;entryDy=0;edgeStyle=orthogonalEdgeStyle;" edge="1" parent="OpV2UFvNa62Xhtrnb1xq-10" target="sfzHv9pNvOCN-W0HhA9W-2">
          <mxGeometry width="50" height="50" relative="1" as="geometry">
            <mxPoint x="89.00000000000006" y="50" as="sourcePoint" />
            <mxPoint x="139.00000000000006" as="targetPoint" />
          </mxGeometry>
        </mxCell>
        <mxCell id="OpV2UFvNa62Xhtrnb1xq-22" value="&lt;b&gt;&lt;font color=&quot;#ffffff&quot;&gt;Stock Data Service&lt;/font&gt;&lt;/b&gt;" style="rounded=1;whiteSpace=wrap;html=1;labelBackgroundColor=none;fillColor=#FF9933;strokeWidth=1.5;perimeterSpacing=0;" parent="1" vertex="1">
          <mxGeometry x="260" y="200" width="110" height="56" as="geometry" />
        </mxCell>
        <mxCell id="tSHxOHQZL74azQnE-G1b-1" value="&lt;b&gt;&lt;font color=&quot;#ffffff&quot;&gt;Stock Data Producer&lt;/font&gt;&lt;/b&gt;" style="rounded=1;whiteSpace=wrap;html=1;labelBackgroundColor=none;fillColor=#6666FF;strokeWidth=1.5;perimeterSpacing=0;" parent="1" vertex="1">
          <mxGeometry x="260" y="40" width="110" height="56" as="geometry" />
        </mxCell>
        <mxCell id="tSHxOHQZL74azQnE-G1b-2" value="&lt;b&gt;&lt;font color=&quot;#ffffff&quot;&gt;Stock Data Consumer&lt;/font&gt;&lt;/b&gt;" style="rounded=1;whiteSpace=wrap;html=1;labelBackgroundColor=none;fillColor=#6666FF;strokeWidth=1.5;perimeterSpacing=0;" parent="1" vertex="1">
          <mxGeometry x="260" y="120" width="110" height="56" as="geometry" />
        </mxCell>
        <mxCell id="um_Ki8IDZ3RUpcfRVOOU-1" value="" style="group" parent="1" vertex="1" connectable="0">
          <mxGeometry x="268.00000000000006" y="380" width="100.40656565656559" height="100" as="geometry" />
        </mxCell>
        <mxCell id="OpV2UFvNa62Xhtrnb1xq-17" value="" style="shape=image;verticalLabelPosition=bottom;labelBackgroundColor=default;verticalAlign=top;aspect=fixed;imageAspect=0;image=data:image/png,iVBORw0KGgoAAAANSUhEUgAAAGMAAABFCAYAAABezli+AAATyElEQVR4Ae1ch3tTR7bffwtb7mAgQNouycvb5GV3syQE3iNZeIGXJbsUY1uyZFNDLyYhYEwIEIot6cpdLrJlC/eCe++9yCq//c6MRpKFjIpl8Ob5+pvv6vaZ8zttzjnj32F9WzMU+N2a6cl6R7AOxhpignUw1sFYQxRYQ135N5YMO5b7A+xriMT+d2XNg8EIbrfDzpoNdjs138Tm94vnXHv/SfP671zTYLgIygGgY6vNjAXLDGYWxjE5N4jx2T6MzvRgdKYbY7O9mJjrx9T8CObMU1i0zsNmt7oBubZBWZNgENFtDgmg3xbrAiN663AZStpv4Entd7hdcQA3SvfiavFuXNLvwiX9X3Gl+HNcK/kSPxi+wn3TIeiaUlHTm4WByRbMmSecUsWly7eEkVS+TpW3xsAgznWpIovNjN7xOmjqU3GhaDuSpY04oY5EsjoMCk0slNJmKKUtUOnecjY6TtFuglwTiUS1DCc0MUjL24IM417U9KgxYx51SAoBbmV2ZzmF9P8WDK6SbLDZrFiwTKN9tBSPqo9DpYvHsSwZ5GoZVNJmpOrioZSikaKNQIo2fJkmg1IbBZUUh1QdgROHE2oZjmXLcK34E5R13MXYbDestkXY3KSQQOH94Ops0TLnVHPLARbK829cMoj7SCVRI+J0jVXhaZ0CJ3M3I1EdA4UmBkopzkl8hTYc1JYHwnXNdZ8MSikGSm0ckjTRkEuxuFH6Bco7MzA5NwC73crVIsmJQzIXFmdQ1n4Dk/ND7NzrUFdvFAwhDbQ3W6ZR0XkP3xfuhFy7ESmsRSFFK/Ob+K8CyAViJFK00VBoNyJJE4sM437GAFabxSEl3OA3DxQjNX8nescbnA5AKKXA27veGBguIGyYnOvHrzVHcDQ7DAptNFNDLq52cfqriB3INQFMqm4rEtXhOJm3jRl6JqE2G2bNo7hj3IMkaQue9/7qUGc2b/QL6bk3AoYLCDsGp5qRWbWXGWalRBIRGRJJ8AccAkWpjUYSqUOtDMWtNzFrHkNR6008qvkOZR03kd2QgLnFKactCSn1PV722sFwn8QNT7/AHeNuKKQYpGg5QVZTIrwBxL8XiWRNFJS6GDyq/g43DZ+jb6IRg9NN+OX53zE6283AIMlZze31g+GYTU/M9eCm4T0kacgrIu/If8PsjaihOKeStjLGKO/8CWRDphdG8aj6MFqGi357YJB6Iu6aXhjEg+qDSMgmd5U8pdDbhUDfyT0tGTSNiZhfnILFugiL1Yy8F+dQ0HKNCQRXr75DMcFKz2uTDKGeKEShb7sBpbQVKmnja7MPy4ND3hp5VzI8rUvAFHNlHRNCuw2Ng/n4uWo/C638tsCAHa0jxTiVvwOJ6kjINdyAvnoCt5pSEwG5Jhoq3SYUtV7EnHnSaaiJ8FabFSPT3Ug3fIzByVbntWA539dzqy4ZnJtccaAXg3qo60/ivukgzhZE4EjWBpzIDkOKhuYUq0n4pe+mGXpidhjScrejtu8ZKPQiOJ+HQcDsBs3C75m+RE2v5qXrvogb6PVVAIMpJJ5rsNtYkG/WLCKsvRid6cTobBfG53owONWE+n4JT2r+iXMFO5lbS9Ki0CwlXOhAkrF3yzUyqHRbcN+0DwOTjWwGTkB4bnw2bkdhazqe1CbCZrc4AfG8NxTHIQRDRDi5vh2b7UF9vxq5LSrmHv5g+B9cK/0CV4r/hKsln+F66R7cKt+PJ3XHUfjiPIrb0vG0/hjOF7wPuYYCgSsFRMZm72wGrwlnKjExOxypuhjcqzrIpGF+0aGWHGkqT4ISQORwvBgqw7XSD1jYXkiP572hOA4JGFysORhjM93Ib7mAi/qdUOrimWFUaGkeEYsUKRb0mx+TFxUHhTaKGVBV7nbcrtiLxzV/x8WiHYx43iWCiEwhDVJrotExNXKTIxzcH44kdRhOOFpqTjQemP6BlsECNrFz5TkEE71MTgHGxHwfzhfFY2Bide3GisAQXEJ7Ck2Xd9zFydxYHMsKY5M4JQGgJeL54nKKsG7EiawwKKRoXNLvQKouwulpKTQyZlMUGjL6MkZkIjQ1CmckqiOQmE0h8ygkqaMh18YhNWczLhe/jwfP/w+GjjvonahlNsDVZ5rAvaya3CHh99pgtS/iB8NnqO/Pcapf9/tC9TtoMERHicP6JuqZQVYQ52sotkQg+ALA23UCgDwcApNApN+RSFLLINfKcCr3bVws+hg/GvbgXuUBPKo+hKe1R6BrOgN96y2UtWeiqusBmgby0T1Wg4m5XixaZx16nudJ+Cz61SAI4gp3nMb6tEYJfes1R0jd5ZCIe0OxDxoMGhSlQBsGJFwo+hhypopIHYUiyspVzonscOZ23q74GvrWq3gxXISBqSaWWiWngHQ+5T4sLL1KxpUirpxQ1D9q4ljsfRNNqC2+F8+VtN7F/effvOT+ElCh2oICg6SBWtOgDqqc7VBqKYETmgCfUktxogim63+u+gatw8WM4JR04tLIjSqFK3jYm/eFE82d+O75bn8Ixu8ncBetc+xbpMY4oHa0DJYgNScKD0yH0TZkgMU2z+6h66HaAgKDiCE61zlWicv6Txx5h5UBIULaHNBYXNH/Ac97nmDewqOlPBvnRnQfuj5Q4giQKbnVP1nP8uWcyK7x9k00QaWLw/EsGZK0EXj4/Ai6RisdRQ9CbfkD+vK9CwAMF6dNzPXhR8MuFukkj2alkVZ6nkLZCm0cMoxfo3vc5OQ6oSaWH8LKr4hvTM0PonW4yFlVQm8WzDc604GzeW+zPlKEOVkTg+8L/gB9202mLsV9K+mN32AIqTBbZ6FpUDIPhgz1SoEgQ6/UxiAxOwJ3KvZhaLqFhSEEgXx5PCsZPD0rpIL2lV0P0DZscALAr3Oun1rox4XC/0SymuwZd6+JeZK08Xhc+x2mF0aWPBdMvwIAg3eqbcSARA3llCkR5M0j8v8cB5LnEi7p32GzcwG6CEkEM6hAnhFg9I7X455pL4vYCvvkDsbc4iiuFH2GJDUvhKC+U1NJ8TiaFYZH1d+y+QvZMXpnMJtfYHAXj9KR4/i1+igSsiKY+7pSqeADisbp3O1oHsx3U03BDSZQAgjXdXphCPdNX6OhP89ZkCAkUoBltk7jmn6PA4ylcycqmJBr41H44rqHDQmsR/6B4XARu8YqcbZgJ1TSltCoJ4nsRDTUDSmsSjAUejeQ4ROhzZY55LVcwcPqw14JKcBYsEzgqv4Lp2R4agWakJ7K24GWIT1nKlvgXpbfYJCnUdpxHQopkpXOrFQqaDAk4ifz3kPbSCnjSO7BBELO4O8VwNf1ZeF80bvoGDM4JVNIBb1d2K5p8yAuFf4XkpjN8KaKI1jR3PWSv3BX3DHfCaSHPsEQnDFvmcbD6qMs1ODJFcEdU2VgBNINfwUFFcl9fR12gsZDQBBz9U6acK7wPWTVn4TZMsvmTp7EE6CNzLTjTN7bDg/SGxgUbZYhITsMlZ0PHaEX4fJ6vtX7sd9gUMj7WslnrN4oNFLBY1jZ9YlYWJzySgjvXV7ZWSIu5S6ah3JxOv893CjbjeGZNjdbsfT9AoyesVqodNGQvyLvQhNWihqkl/0Zk/ODrDqSwPd38xuM3okanM57yxF19c4ZgUgI5ZzJCzF23mN5AprRr+ZGUickonFQiwtFHyBZE4YXQ0VOLvb2fQHG8+5nSGKh/VeXlZJ0pOZsRduIkUt7SMFwxDap00qJvIiVT/I4aNGsIKFhIJd9gXTzamxCzQr1VNP7lI0jITscpu5fmZ3g3PsyB7s/q647B3rGV4qYItWJ6miUtN9isTtydf3dfEqGeFFjfx7krKwmFOlRyrhFI0EtYxFWMpirAYZwXSmXPTk/gLyWy1BIFAGOQ17LJadxXs5WCQDnF8fxg2EXTmTzyd6rNIBKimFxNaqQpDUiqwJGQ38uC+DxhM7K1RSFFI5nh6O2T01Bh5CCwUBwZO8I5NZhPe5W7keKtImFMbQNp5csDRAM57kXYLSPGCGXIlglvK/8DNkNyrP8VP41JueGWDTB3Tvz/Ib7sU/JIOGl1jxQwLJ2oQKDZvBHssJQ3hE6m7EEBNjZjDi3+QJUOTQvIvBlkBrPMIdBqCB3Ynj+JjtGxl5qPIejzzawsM2rpIJfi0CyWoYbJXswNtvH7FTowHBUANKE72QOpUopbbpyyaC41rGsDciuC86b8iS8UDVEQKqXre/X4mrJBwwASu+mSBtR1JoOu59FBQQWqTda9fR9wQdIVlMMjeJSvsYuY+qcVlCNzfSuDhgjM224WPhHFrUMBRgULqegW3rZX9h6POG1eHKn69gVNWZcLdQQszc0k57F0FQrKnsycdt4AErdRpYllGticanoIxi7fmaVKmIS53rvy7+EejJbaXZ+GfQOvkbEFxB0nSQjHOmle9nSNxpXyCWD4lIZlQfZPMM3d/jT6XAopU1Iy92BxsEcNs8gTnTfGPcvyda5AKEBUqaRFrs09hfgSW0CLug/gUpH2cYtbHKWrJEh03gI3eNVWLQuuHlO7l/x/G13zg86RytwvvD3Dnd+aTxqORpQKiBRHYYM4wG20JOP6WVPzfOrdOyHzeAKgQaT03yK5aipAGy5zgR2nlf0ZVYewtwiLYCkuQBPnQpJYVLgUJXUYcrCjUx3or4vB09qT+BU/hYcfkqFCdFI073L1Cipv7MF76Cs/Q5sdjNTFeJ93oggztFI6T5q85YJ/GjYy1Y6sYoTn+qJM6BKimVL1tQNKiatIfemBJEaByWk5m4DLTIJhari74hixQZZdQpMLQw7waBwxcLiNON8WmRJVX85TZfxU/lXSMuJwglNFBKyac4Th1Rph0N9xuJ84YfQNqRhYKrZMZnjBBYE97YXgBMIRLzx2W5kVn7L14ywpJd/ks4ZMRrJ2jiYep6wsQQymfUpGdR50dnxuV7cKqcwcgxSpJVP/jgYJP7kFETibuU3qOtTo3mwEIbODDyrO46bhn04k/cfSJFkSNbEQq7ZDKV2IxSaOCSpN7LKkbTcbcgw/i9K239k6ypIegSHU9+X24QkcDtCEmFF+6gBd4wHkKyJY+sAqY/+Mx73pE7lbWfVKTZbiGNTYiDUYSpvNHU/Yi6pUqICtUA4xvu9PLgWjiRNOI5lhyNREw+5tBWJjPAUetiCNN12nMzZzorejmdH4mgWhRzikFFxEPoXt9A+YsCMeYS5oRwEV/EC7z9XtYL4pMepCSajPWXqytrv4lzB21BI8c4Ci8DGGMkChZmVBxypWP4NQUNfe78kg15CHaaB0nq3DOOXbDZKK0gD66wnINFQ6mLxrC4ZzQN6GDoycbnoI9CilTTdFra2j2pvj2eF45/PoqDQbcYd4z6Utt9Fz1gd08lkyIn5rTaq6zUzNSOITXvidg4Qv48DwNWR2TLPlrFVdP6CG6Wf4h/PNiCF6r6CCvmQS0sFdpGskoS+Sd8KZPMfDIcLSR/oHjPhbP7vmctH6xqCAYTPVCNwq3w3D6HbeFi7ous2VLqNjqp0Gc7kxeN2xX8jv/kaGgfyWLH0GPv3FF1sLTcVR9CaCuLsGfMYZhfGWXUH/UeEWfMEZhZGWQSVwvRDU23oGa9h76H1e79UJeD7gp2s2oOWKKxoTSEDIhyPqxNgsS0wBlg1MNylg9SVses+UnVvMfeUwAgUEPI6jmdtwJPaw8yTWrQswGazo3PUiNN57yOFrf+OwMWid5Bh/Bsyq/bjB8NuXC/9AtdLd7FwfrphF34s3407xr3IrNqHn01f4X7VfjwwHcLD59/iF9M3uGf6CreNe5FetgsXij7FmfwPodJtRzKrVKSQOFU/knfIy40CHYfwHmmdx5XiTzE0TeF4306DN4nxWzLEw+JD5OnkNKchQR3JQAkckEjI1ZG4XvpnjEx3sAFQ6KG0PR0pNFfQUEo2nE2gjmWRqiL3NQxyNcWIqOY2Askaus5rbmmNBzVK7rg3OkfPUYiCLfDXbmJpYyYFLPDJVWewIBAYlLFM0W1DXb/W6UGRfQp0CxgM+gAzh1TsvDDKluYma6hSZFPA3MVqpaRo/Gw6iMquX6BrOodTudsc0WFhX6gSJRoUDeXhCApJuBrpd9YkqvGNAUnc0kbPcc4XQT7BOCsBgL+DHIxNkEvxqOi653Aglk5cAwEkKDAYII6JGNW7kkt5tuBDJLOiZ/6vJcSAhRgvtydvijhcTlLA1lG8KnkjAFp+L74r9st9N9jz9F4ClWJrydoonCv4CFXdD5yeXKB2wh2s4MFwM+j0L4g6RsuRWfk3HM0i9REJlcQlhQbtkzBU8k/c66Y2giVWqJ9b2ncaF4950T+XuV2xB13jJufkciVAEChBg+FC1OXDU22sqesxLunfRYI6iulpJdPRm5gKSdFEQqGhxSzeGul0b+ff3DnqL1N9OrIzm1hgk2zkuYJNqOh4wEM4DqZ00SP4XyEAw2FDmMEio2VnriSt1cuqP4b0st04V/BH7nmx0AIZZpq9r/1GQKTlvIXTuR/gWunneFp3FNU9T1nWkJOcM2Lw5F/6ZEjAEB0jIHjj9UYUlqB0Z/9kE1qGClDd+xSm7ieo6n78b9Fqep/hxXAhqDJkfLaXTTIpEuEap2u8S8ka3FEIwfDWAcE5IvTN06siFrT2945+O5lMuKuhBUFQbpXBEJ+hvRiAGJD7Nc/rnve4H3t7j/s5z3vd3+3+Tc9nxLG4x/094tzq7l8jGKs7kN/C29fBWEMoroOxDsYaosAa6sq6ZKyDsYYosIa6si4Z62CsIQqsoa78C4Jau84W19zUAAAAAElFTkSuQmCC;" parent="um_Ki8IDZ3RUpcfRVOOU-1" vertex="1">
          <mxGeometry width="99" height="69" as="geometry" />
        </mxCell>
        <mxCell id="OpV2UFvNa62Xhtrnb1xq-18" value="&lt;b&gt;Discovery Service (Eureka)&lt;/b&gt;" style="text;strokeColor=none;align=center;fillColor=none;html=1;verticalAlign=middle;whiteSpace=wrap;rounded=0;" parent="um_Ki8IDZ3RUpcfRVOOU-1" vertex="1">
          <mxGeometry x="2.5934343434342964" y="50" width="97.81313131313132" height="50" as="geometry" />
        </mxCell>
        <mxCell id="sfzHv9pNvOCN-W0HhA9W-4" value="" style="group" vertex="1" connectable="0" parent="1">
          <mxGeometry x="490" y="290" width="73.87" height="104" as="geometry" />
        </mxCell>
        <mxCell id="sfzHv9pNvOCN-W0HhA9W-2" value="" style="shape=image;verticalLabelPosition=bottom;labelBackgroundColor=default;verticalAlign=top;aspect=fixed;imageAspect=0;image=data:image/png,iVBORw0KGgoAAAANSUhEUgAAATkAAAFTCAYAAABCjnvNAAAgAElEQVR4Ae2diZ8U1dX3n38gT97H5EneRKb3ngFE4xKjcQma6Ez3LGwCGoMgMrhrnkSjxqhJfOOWGLcoRIlRQMGYJ2xxQ2amZ2ERAVFxwwVm6Z59YZgNZvu9n3Orq6d6pmdleq3ffD6Hqq7urqp7uu6Xc+4599z/AP+oAWqAGkhhDfxHCreNTaMGqAFqAIQcHwJqgBpIaQ0Qcin987Jx1AA1QMjxGaAGqIGU1gAhl9I/LxtHDVADhByfAWqAGkhpDRByKf3zsnHUADVAyPEZoAaogZTWwJgg19/fp5RwvOMwWsv/hoZdOQgUe1BVlDzi92XD78uFv3gOAmULUbvzKtS+sxz1+36Oxvd/jaaP/oAjnz+F1kNr0Obfgs76Uhxr+RA9HVXo625Df1/vCA9CP9Dfp32mT9PVCB/mW9QANRBDDZgGclVFXgjoqoqy4S/Og794FgKlc1G383LUv3MlGnZfhYZ3l6Jhz3LUvns96vbcgrq9v0D9/rvR9PHDaDu8Cu1V/0Bn7dvoanoXPW1fovdYE/r7ukM/V39/f2gf/f3Q/nMwHBt4l3vUADUQIw2YCHKRrc7KQv24FwJCTfRjHvh9OQiUzEXjniVo2X8jjnx0B1oP3o+jXzyKI189i86ajTjWWIxjLfvR21mBvuNH0N/XAw14AjoNcoNfx+j35WWoAdNrwNSQqyzMwuG3M3Fo66U4/LbsaxLuhosF6EVtWS4ads5Cw67ZqN+Vh5oyL/yl2WjYdxWaPvw5Wj57AB0VL6Cz+k0ca96HbmXp1aKvpx39/eLqapadDj3TP3lUADUQIw2YFnICOF0qCjIhor82bnU3V1zd6pJcVBZ68eWbl+Crt34Cvy8T/pJM1GzPQv0uLxreyUH9rrlo3HcdWj59CG1V/8Cx5j3o7apDX89R9PcdG7DyZAzP6N7G6AfnZagBs2mAkDPAzgg3fX/AhTW6slmoKsrSIFechUCJB9Wl3pAESnNQUzYLdTvmoeGdn6L5/dvQUf4cjjWWorvDPwRuMnanB3fM9gCyvdRAtDVgWsiFu6QDY3CRjsu4nVE0wMl4nYAuC34FOi8CJV5UF3tRU+JFbYkXdaUe1Jd50bJ3AVr3L0Xr+7ei7ZP70VmxGp11JegR4PV2hf/GYt3RwgvXCV9RAyegAUJuDGkwulWnbzUQatacAK/KJ8DzoLo4G7W+bNQVZ6NOgc6DuhIPmnflqWO1RV40ls1B675lOPLR3Wj/cgU6/VtwrOl99B5rBGTszgA5urMn8GTzq9RAUAOE3IQhF279SXCiusiL2kIvBGa1Pg9qirOURVdfnAP/Vg8q38xE4O0sNJTmoL4sBw1ls9HwTj6aDjyIo+UbcFzy8rqq0dfTgX6Vb8f0E/ZUauBENUDITQrkvPAXeREo8qKm0KNJURaqfSIeZd0FCr2o2paFqq2ZqNyahfK3LkXF25eiRiy/kjz4C3LRuO/nOFq+FsePHEBvt6SiHFdjddqYHYF3og87v29ODRBykwQ5fSwvUOSBJlnwiytrHM8rkNcDUd3ybZkqLy/gy9G2pbNQvf0y1O27Hs1fPomu5j3o6+0Ipp/0K+tOs/DM+bCy1dTARDRAyI0BcjrAIm3FTZXxuLD3DCCTcbyK4aQoC5VFMp4nkVsPKou9qCrJhn/7bFTvXoT693+J5oN/QUd9GXqPNQxEZQ3jdhP50fkdasBMGiDkThhyWtDBCDk9QBEGuKIsVESQymDgQoIXlSVeVJZko7I0G1UiZXmofWcRmj66B62HX0RH/U4FO2OAgsEJM3VXtnUiGiDkEgRylQK5Yg10GuByUFWWg8D2PFRvz0X1ritQ//5daK/agO7WT9F3vEUlFstMCqacTOTR53fMogFCLtEgVyzWnBcVJR6Ul3hw2OdFubjEpdmoKfWirmwWWj+8D121xejprA0FJwg6s3RZtnO8GiDkogw55bqqsTcZf4ssylWVcT0RgVyxFxXFHgU6BTyfF5W+bASKc1BTmovGnXPQ9O5iHD34GI417TPMlqBVN94OwM+nvgYIuUmC3JDgw+Dz6hAbZeuX4IMOOQFdUCqLs1El+XaqLp7MrshG3TtXouXAXeisWofu9nL0qdkTkmoyUP0k9R9htpAaGFkDhNxgGI3ztcBNF2PwYcj+KHBTVpycS0FOxuYGiTou9fC8qCzQ0lNqSzzKqjvy3nK0ffEUjjWUoe9YvRqjk4AEgxIjP/x81xwaIOTGCbXB8NIBN7mW3CDAlYgbq7mzfkk5KcxCjc+DumIPGkqz0ViWg/ods9D66b3oqnsdvR0V6O/VE4mZRGyOrsxWDqcBQu4EITcYeif0Wrf2JMpanKVJSRaqRIqlEIBMFZOJ/9molyCEzKgozEJVQRaqS7LRtGc2jny4HG1frUB321fo6+lUJdlZ4WS4x5/HzaABQi6RICf3okCXhUrfgFT59GIAWtKxPqMiUJQFXcSSDJRIFeNcVJctQP3eX6CjtgS9x1tYsNMMPZltHFYDhFyCQm4AbDrgZGucWTFwfMBl1tax0Eq2z0Hje7fgaPk6dLcdUg8Ax+mG7Qd8I4U1QMiFgcMIkTjtiyUnsyDCZCL3opVtb9h7I1q/XIWu5vfVOB2Th1O4N7NpETVAyCUk5CYCtaHfqSjwIFCcjfrdS9Dy2aNq7Qkpw66mhclMCf5RAybQACGXaJCb5PuRNSlqt+ehac9CNHzwC3Q17VHjdLK4DgMSJujhbCIIuUmGSvi42VDrKh7vizVXLUGJ0jzUvLsM7TVvqkrE2hjdSItms4dQA8mvAULOBJDTwSolnQJluajbd4MWkGivUAnDtOiSvyOzBcNrgJAzFeRkRoWsLpaN+j3Xo/XQC+huP4z+vm5OBRu+j/CdJNcAIWcayAVXFvNlIVAsAYks1O5egiNB0Mm8V1p0Sd6befsRNUDImQhyailFSSAOgk5mUAS2z0XL4RfQ3VE+ULYp4qPCg9RAcmqAkDMZ5BTo1HqxWjEACUjU7pyPI4dW4Xjbl9oYXR+DEcnZnXnXkTRAyJkGchLpHUgy1mZJeFUeXXVpDmp2LcGRL5/D8aOfMxgRqafwWNJqgJAzFeQip7RoC+l4UfPOMrR8uQo9HVUMRiRtl+aND9YAIWdiyOkL7sjMCBGBXd3uZWivWI/erroQ6AY/NHxNDSSTBgg5k0OuoiATsv6rDjkpr96w+yp0Vm9F37FGoL9PpZck00PNe6UGjBog5Ag5BTmx6lSysM+L2pI8NO+5Fl11RejvblXPC9NLjN2G+8mkAULO5JDTXVbZyswIAV21LwfNu+ajef/d6Kz2qeKb8lCznHoydW3eq64BQs7EkNOnew3e+ou88BfJymAL0HTgQXTU7w6tG6E/ONxSA8miAUKOkBtUjNODykIPvnj9UgW62l2L0PTpY+jtrFSLWdOaS5auzfvUNUDIEXJDIVeQhS/e+ImCXN2O2Wjan4/2iufRd7yJtej0nsNt0miAkCPkQpCTlcC09SNkRTAPqn3ZqCnORW3JbNTvugrt1a+rEk2qujCLbiZNJzf7jRJyhFwY5Kp9ArcBqfHloMaXi9rSOWg58Esca96Jvp42rd/0s7qw2QGSDO0n5Ai5CJDLQrUsd+iT9V2zUevLUWklLXsXoPXLx3HsyAdqqcNkeMB5j9QAIUfIhUEuoKw4AVwmqotFPKgu1tzWxl2z0bhvCdoq16C3q1b1HgYiCJFE1wAhR8iFIKdXKAn4MqFEQU6Ap03kl/UiGnfPQusnt6Gz9jVt2peaEZHojznvz8waIOQIuSGQ8/sy4S/ORKBYtjITQlv1S9aKqCnJRm1pHpo/uAvdRz4LzW+lRWdmjCR22wk5Qi4McmpRa6k3J3Arka3MgtAgJ25rbXEOan3ZaNh5FY5+9jR6jzVxfC6x+7jp746QI+QMkPOg0pelSbEHVSUeVMm22At/sRfVxV7UCuh82agvmY3G3cvRVV+MvuMtwRp0jLaanigJqABCjpAbBDkPKnweVBR7UWkQbU6rFzU+jwJdnS8H9aVzcOST+3H8yIfo6z2mpn4l4DPOWzK5Bgg5Qi4cckUCOa+SSl92CHRVEnyQyftFHg10PgGeF1Ka6WjFOvR0VWtdiblzJkdK4jWfkCPkhkCu0ueFQK3Klx3caq81yEnunCQLa5CrL/Oi6YNfoKuhJPGebt4RNQCAkCPkwiAXqkji86qyS+KmVvkGyqb7pe5cYVZo+ld1URYad12G9q+eQU9HebBTcWyOdEkcDRByhNwwkNOiqhJZDYGvSCqUZKEqKIFCD6q2ZaKu1IOWD25FZ80W9Pf3sJJw4vRv3gktufAObOzM3B8ecnqBTZnM7y8Q99WLxncWoPXgg+iWkkz9XNKQdEkcDdCSoyUXZqkZ4a4tWxj+H4FeSVg+J5CrLvIiUJiNutJctOy/Dkf9/0R/bwekXDoThBOno5v5Tgg5Qu4EIOdFTVEOAtskQTgX9Tvmo27/L3G8vQJ9fd1m7ldsewJpgJAj5EaF3OBxOaO1V12UjerCHNQUSd25WajZeSVa/ZvQc6yeCcIJ1NHNfCuEHCF3QpALFEnunF6OKQeB0llo+OgeHGs9oOa10mU1M14So+2EHCE3Icjp43VaaSYPamTKV4kX1aU5qH/3p2ir3oIeWbeVq3wlRk838V0QcoTchCGnBx9UAEIKbJZ4VZWShndmo/ngI+hqeV+lk/T1MdpqYsbEvemEHCF3QpAT0GlrQ2gJwjIT4vC2TPh3LsbRqg3o6+2K+0POGzC3Bgg5Qm5MkNPdU+PWGIDwF0lxTUkr8aKqyIva7XNw5PPH0N32ebCHcRaEuVETv9YTcoTcpEAuZNHJJP6SHNSW5aJx//+gPfA6o6zx69+8Mmc8hCe6Gi0T7g/MeDBab8b9SDqSua5SQbhaKgjvvAItBx9Hz/EjKjmYPY4aiIcGaMnRkps0S84IvcpCj7Lmjhy4DV3N+0LpJEwpiUc3N/c1CTlCLiqQk3E5seYa9izF0Yq/o6+nXRXVJOTMDZx4tJ6QI+QmDDmj6zp0XyuZXrvzMjQduAO9nQH090mFEv5RA7HVACFHyEUJch61LkRAkoP3LEZX4w709RzVSqSzenBse7nJr0bIEXLRg5wKQnhRt3Mejh5ahd5OPyFncuDEo/mEHCEXVcipBXDKctHy0e3obv0I4GLU8ejnpr4mIUfIRRFywTQUmdf6zkJ01Bagr7tNdTgGIEzNnZg2npAj5KIIueA6EcU5CJTlofXQi+jpqAxCri+mDzovZl4NEHKEXBQhJ5acRFlzULtjFlo+fQDHmvdpkOsj5MyLndi2nJAj5KIOuUBJDhremYPG/Teho/YtppLEto+b/mqEHCEXXcgVa/lyNdtzUbt7Po5WvIi+4y2m73hUQOw0QMgRctGHXIkXge3ZaHpvNtor/ozuts/UEy6L3fCPGoi2Bgg5Qi66kPN54C/xwF+Wjcb3ZqHl81+jo9GnnmtCLtrdm+cXDRByhFwMIOdF9Y5c1O7JQ92B69FStZ7ll8ifmGmAkCPkog85GZcrzUZgVy6q3r0CdZ8/gd6eTq7LGrNubu4LEXKE3LCQM5ZOOtH9z/59MSp9XlSW5aH6g3vQ01mN/r5eWnTm5k9MWk/IEXLRhVyhB/5CDwJve1BTkI1qXzbq992KY817gX5ZgLqfFl1Murp5L0LIEXLRh1yBBzVve1D3thf1BV40716OzsBm9PeKyyoRVq7/YF4ERb/lhBwhF3XIVRd6UL/Ng4atXjRu9aC5bBHav3oWfT1trEoS/T5u+isQcoRcVCEnyxXWFHnQUCCQy0Lj1iw0Fc9H60f3q6RgTtQ3PYOirgBCjpCLIuSyoJYqLMpCXVEWGgpFMtFQnIfmPTejpyOA/n4uPB31Xm7yCxByhFzUISegCxRnIVCSheqSTFSXZKFh1yIcbzmgxuWkD9KiMzmJoth8Qo6Qiy7kfFnwi5RkwV+WhaqyTLWt2bkAXXUl6O9u1QDHkuhR7ObmPjUhR8hFFXJVRZrLqllyGuD82z2o3jkPbf6N6D1Wr4IP/Sy9ZG4SRbH1hBwhF0XIyeLdWQgUZqG2MAs1ym31oKrUA//OuWg59Hf0dAY0yHGyfhS7ublPTcgRctGFXKEHkkJSt82DugIPqn1eVJV4UbVjNpo+exTd7YeZRmJuBkW99YQcIRd1yAUKBHJeJQI5v0Bu+yw0H/gtetq+IOSi3s3NfQFCjpCLPuQKPagt8KKmwItAcTYqS7zwl83CkQ/vQHfrJ4ysmptBUW89IUfIRRdywcBDtYzHia6LvagsyUZVaR6a37sBx5r3B6d2Rf1Z5wVMqgFCjpCLPuR8WQgEU0kqFeRyUFmSi7qdV6KrcRf6+2SiPv+ogehogJAj5KIPObHmijURV7W8RCCXg+qSueioKQwlBEfnEedZza4BQo6QiwnkAkG3VSy5wyXZKJd1H3w5aPe/hr7jR1Q/5KwHs+MoOu0n5Ai5mEOuvCQbFSXZqC/LRUfVBvR2NWhPN2c9RKeXm/yshBwhF3XISUJwSHweVEmFYJ8XDbvy0FH1Knq7agk5k4Moms0n5Ai56EPOl4WqoEjppUCRF/6ibNTszEFb1Tr0dlUHn3EWz4xmZzfruQk5Qi76kBNLzgi5QoGcLG7jRWv5avR2+VX/4xKFZsVQdNtNyBFysYFcyGWV+awe+H1e1G/PQXvFC+jpLCfkotvPTX12Qo6QizLktEn6oTG5oFXnL/ag6Z08tJc/j56Ow4ScqTEU3cYTcoRcDCCnWW/asoaa6yqQa9k7B23lf8Pxtq+0p5yVSKLb2016dkKOkIsL5AIlXgW5o+WrCDmTwidWzSbkCLm4QM5f7EXL7lk4evi5EOQYeIhVtzfXdQg5Qi4ukAsUe9EsY3KHn0N3O91Vc2Entq0l5Ai5+EFulwa5HkIutr3eZFcj5Ai5uEOOlpzJqBPj5hJyhFzsIKemdGnRVXFXm3bmoa18Fbo7DmmPPaOrMe7+5rgcIUfIJQzkGHgwB3Ri3UpCjpCLK+QkhUS35Ai5WHd/c1yPkCPkCDlz9HXTtpKQI+RiBrlKnweVwYn6+pgcLTnTsidmDSfkCLmYQa6CkItZx+aFBjRAyBFyMYNclR5dlZW7fFp0lZbcQGfkXnQ0QMgRcjGHnJ+Qi05v5lkjaoCQI+RiBzml6ywI5Kp9XjTvygMtuYj9kgcnUQOEHCEXU8gpK84AOWMyMFNIJrFn81QhDRByhBwhF+oO3ElFDRByhFxcIFcTdFdpyaUiVhKrTYQcIRc/yO3MDZu7Snc1seCQKndDyBFyMYVcQCKrRVlQlhwhlyocSeh2EHKEXMwgp625moVqQi6hoZBqN0fIEXKxh1xhFmqKvGimJZdqPEnI9hByhFxcIFerQ+4wq5AkJBlS6KYIOUIuJpATVzXkrhZmQUFuRy7aCLkUwkliNoWQI+RiBrlAkUcFHaoJucSkQYreFSFHyMUEcrKw9BBLTsbkaMmlKFoSp1mEHCEXM8gJ6FQKCQMPiUMAE9wJIUfIxRRy+txV5smZgC4J0kRCjpCLH+R2ha/WxRkPCUKFFLsNQo6QiynkqorCSy1x7mqKESUBm0PIEXKxg1ywMjDrySUgCVL4lgg5Qi5ukJPFpVk0M4XpkiBNI+QIOUIuQTojbyM6GiDkCLm4QY7lz6PTqXnWcA0QcoRc7CCndM3AQ3gX5Ktoa4CQI+RiCjk9T05fyIbR1Wh3cZ6fkCPkCDlyIKU1QMgRcnGBHNd4SGmuJFTjCDlCLn6QY9HMhIJBqt4MIUfIxRRyXOMhVVGSuO0i5Ai5mEEuVGqJazwkLhFS8M4IOUIu9pBjqaUUREniNomQI+TiAjmu8ZC4UEi1OyPkCLmYQI5rPKQaOpKnPYQcIRczyHGNh+QBQyrdKSFHyMUEclzjIZWwkVxtIeQIuZhBjms8JBccUuVuCTlCLqaQ0+euco2HVEFI4reDkCPk4gc5rvGQ+IRIgTsk5Ai5mEKOazykADWSrAmEHCEXO8hxjYckw0Nq3C4hR8jFBXIBnxdc4yE1IJLorSDkCLnYQ86XhUAxIZfocEiV+yPkCDlCLlV6M9sRUQOEHCEXV8ix/HnEfsmDk6gBQo6QI+QmsUPxVImnAUKOkIsB5LIgqSNVvuC2KAv+YOCBllziQSHV7oiQI+SiDLkBsGmQ86Cq0AN/kRZ4IORSDSmJ1x5CjpCLDeTEilOWnEDOC39RNpp2zgIhl3hQSLU7IuQIuThBLkdB7mj5KnR3HFL9qr+/L9X6F9uTABog5Ai5KEPOo43HyZic6LrQG7TkBHJ5tOQSAAKpfguEHCEXdchVFnpQWegNie6uNssE/QpacqkOmXi3j5Aj5GIIuWwFOgU5XzZads9COyEXbwak/PUJOUIu9pAr8qhpXS17ZqG9kpZcylMmzg0k5Ai5qENOjcUVeYPX0VJKAsUeNO/ORevhZ3G8/SvVDRh4iDMNUvTy44bc0fK/oWFXDuQh1R5ebqmHkZ6BYJ6cnkJSnAl/cSYCJR407spG6yENcv39/RDIaVvZp5hdB5PF3HFD7kj586jbNQuVvhxUFOWgfAxSUZiDyZCxXMv4mdGuafzsWPZ5vvDfcUw6K8pGRZEX5T4vyos9qCjJUlJZ6kXtzjy0HP4bjnccUlDr6+8l3Aj30DMQF8h1tR1G/Vcv4quyhThYuACfFSzAZ9uGk/n4bJsmB7fNx8G350NtZX+Cop9vrNvRrjPW8+if4/nCfztdLyNvL8Nn2+bh08K5+LRoDj4rmo2Dvln4rHgODpYuQF35WnR2lKO3rwfdvcfR09cbU+nt6wMlAXXQ34c+Jf0nzLoxWXJyMfmrq/0U725fiX+vW4y31i8LyjV4a70mW9dfgwFZiq3rr9Zk3dV4e90SbDsBke9vXT8gb61fAl2Mx437I12T54ue/vTfRdvKs7I4+CwswVuvLMJbr/4Mr7+6CP98+UrseOdZfF7xLqoaK3Co4TAON/lxqNGPr0QaqqIk2vkPNQVQdaQONe1NqG5rQrVsw6QZ1e2UmOqgrVn7LdqaUNfWjI7jXbGBnH6VoqLNuOWm2fBcYsNlORlYIOJND8lCbzoiyeXedFyR7R4qXjeuGE0M31vodUNJthsLDLIw2w0l+vvBbcRr8nxKV9HUn/Hc+v7lXjdErsh24fJcN+bluXFplhO/+N1SPPrqX/DE1lfx8Buv4o/bNuGPBZvwyLaNePjtDXh4678ii7w3nGyV723Aw29twCMGUcfUexvxwFv/wh8LN+PJ7Vvx170lWLmvVMmKfaUYkO1YsY8SUx3sLcPKfdvx9N4SrH9/Fz6p9ev4mfB2TJacfvb//d+X4fWcB7v165jq/C9Mc/wfTLN/fYhMt38d0+3/GSan2P8Tpzi+FpIZ9q9hLHKKXfvOdPvXoMs0x9cwRAzv65+TrfGaxn3jZ4acS87P8yl9G3Vm3B9Vf8bfyP51zLCehFMtJ+FU69fV7z7V9Z+wuf8Lc/Jn4cYn7sNNa57GNS8+g2tffhbLX/4rlr+0EvlrV2DZMJIv748ka1cif81KLF8dlDXa6/y1K7Fs7Upcs3YFlr+yCrdueRl3bNuIX23biNtFCoyyGbcXUGKpg18VbMYdhVtwZ/G/8cSubdjnP6zjZ8LbcUFuw7/+iRzvpXDbT0a6/Ttw2b4Fp+2/w8Rl+29o8k24bUGxfhNu6zfgtp4UknTrScgYg8jnQt+znQS37SS4ROyDRD8e/Ix8LiTGcxj3eb4BPU6C/pz2kzBYXDb53b+FaSdPwfTvTsH0k7+NaZaTkG4/Cfb0b2P2sstw7Z9/i+v+/hSWvvB0CFwKbmuewbJhZCyAE8jlByEnW/U6CLmlQcjdvOkl3L5tA257OyiyH5KNuG3bJkqMdXD7tk24u+wN/OVdH94LlE8YbvoXxwm5DcjxZMN68hS4bDY4bFbYI4oFDlvaIJkCh3UKnBMQ+Z4S2xQ4gmK3T0Ek0d8P2+rfD16b54usO9FnmN50fY9DfzbHFBjFbk+D02JFxsluTPuOC9O+a0PGlClwWb+L71i+Be/iy7Ds0fuQ//xjWPy3x3DN6qeHBVsY8NauCAFxCPDEigtacjrodMiJFSeiILd+FQRyA1AzAk72Cbl4QF4gd1fJa3hsx9vYU6kVb9CBNZHtuCC3aeO/kJebBbvtZLjsDjhsDtgjih12my0oFthtQbFaJgY5HWy2KbAHxWafAqOEgGf4zJAOq0OO5wvTnehx0vQXgpwFNocFNrsVdosD7iluZJzsQsbJdrjT5D/BKfhvyzfhWTIPy5+4Dze8/DjyX34Cy9Y+PayLanRdh4BtsOs6GHRi1QWPLVv7V1yzdqVyV2/Z8hJuL9CBJlAzymbcto0SSx3cXrAFvyrYgjtLxF0txD5/jCw5SUqUvy1bNmLe3Bw4BHIOgZwTdpsrgshxHYAa7BxWKxwKcgK68Yl8LwRKAaZdOo/eibR9ORYSHaqDtvr1eb4o6k/ApovdCpvNDrvFCdcUF9KVOOBKsyv4fdPybWRdvQD5T/4WN6x7HPnrnkT+S+KyjmClGWCmxu5k/G6wvCRjen/F8rVDJX/tXyEikLv2H3/DLVteNozDbcLtBUaR8bgtlBjrQIfck/GA3OuvbcHC+bPV/8KaJeeE3eoKE4fVBYfVCYfVAYfVbhAbnFarcl3EfXGNQ+R7GiSD26CLLFaCLbgvrnNIBn8++Fq/Ls+nDTNERX/ym+his8JmtcFhccCZ5oQrKI40J6w2J75pmYLMq3+K/Cf/gOvX/QX5657GspeewTJCztRgjSvktr75Jn56+XzlcqY7nHCKFWcV0DnV/9YOixNOJQ44LfYBSZN9Wxjg3BYrxioCRAGUgqSAMggtu9UKEQGg8b3Qvv694FbOI9fk+TSdRUt/+nn1rfbba6Bzprlgt7hhsaXjG2l2XLpkMfKffBjXryNuCMQAAB0ySURBVFuJZSIvaTKqO/rSyqEWnG7R0ZJLakjGBXJ9fVoycMG2bVi86GcqCOB2OOGyOeG0OjSR/61DYgCcxa7cE1eabVzWWyRLLwSv4aA26HikcxiP8XzD/OcQ1KNRV5H2x6o/zQq3ada9RSCXjjT7VJyU5sSlS65G/hN/xPUv/xXL1q1QVly4JSeu6yAZKeigu7P6mJwxAKGPya3hmFwsx9nGcy3jmFxM3dXe3l41JldSXIz8ZctgsUyBS0FOAGfXxGi5RdpPE0vuBMUqLu84ZLTrjedc8lmeL1wHo+pvsNVtg93qgM3qQpojHSdZgpbcEw/j+pdXIH+duKqD3VUB3DPhsvYZ5I9H1jyD/KAsW7MSIkvXrMByia5uZnQ1HhHUka4p0VUJPMQcchJ82LlzJ2655SY15uJyOlWENQQ5HXaRtpGgN5Fjkc490rHRrjHSdyO9x/MNDEGILiLpKOyYWG/akIKWaiRBKAdsNifSHG6cZLEic8lVyH/iIVwvIFunw8wYeJgkyK1+BvmrJe+OkBsJMInwXlwht3fvXtxxx+1wOO1wO11jh1zYgz+WzsHPjA6QZNBREHKhQJENtjDIWZC5ZBHyn3gQNwjkXibkEgEy8b6HuEFO/NUDBw7gvvvuhd1uhdPhgNOWDB2N9xg/YI4MuW9YNMgtfzwIuZBbSksu3qCJ5/XjAjk98PD5wYN46MEH1JicQwBHyI3BZTMzZMcAucWLEAY5Nda2IpS4K/NXxzX+NtxYnT4mt3ollq1eiaWrOSYXT5CNdG0FueIYj8npycDl5eV44vHHYbFIxjohFz8LKVnAmSSQUzMeBk/p0mdBcO7qSECKxnsa5F7Hk7uKYj/joaamBqueWwWbRfKskqWj8T7jB2NCLhoQSPVzxhVyR44cwSvrX0GGKx0umyF9hMCj2xrxGSDkUh1I0WhfXCCnkuQAdHV24o3XX8fpp34PbrskAtNKog5GegYIuWhAINXPGVfISVJwaUkpZp5/ITKcblpzhPwo/9FNEHJrVmi131ShS9kfSOYN2x8uyBDp+EiBB47JJVTNvLhCTiy6vXv2Yt7suZjmziDkCDlCLsYFJVPdipP2xR1yH37wIZZdvRTT06cql5VjcyO5a2Z/bwKWnLK4aMmZAWbDtTFukJNcOUklOXjwIO781R2YMe0UQo6W3ORbcoRcQrmOw4EomsfjDjnJlXv00UfxvRmnEXKEHCFHd3XSoRw3yIkVJ1JbW4s1a9bgzNNOJ+QIufhCLlJAIlLQQY4x8DDpMIqWNRd3yLU0t+CtN9/C2WecNcoDbvbxKLZfymKpKiTDTNBXc1cHT+saj7tKyCUNuMYDxLhBLpQr19WF/fv3Y+YFFyLd4SLoaM2N8AxMIuSMFlokuOnHjJ8z7gffl3mrQ+auMoUkoWAZd8hJrlxFeYVKI5kxdbp6wBlhpdUWOSmakBuPBcPPavOE4w45GZdrbGzEjdffgLNOP1PlyhFyhBwhx4n8kwXpuEJODz7IHNb/d///wwU/PF9BjlO8CLlJg5wKEkTIk4vgeurBBG37NPLXPI38tUYxlEmnu5pQLulIQIw75CRfrr29HS++8CKyLs1UFYLTXW615kPkB50AMK9eJuCuRgVyAk1NOCaX+BZnQkDu2LFjKCoswuy8Warskiq9ZNPWWDVvhybMh/72E4ScKpSpr3g/1qKZRgtO3xdLTr4/YBkScoScHkSNuNXd1Z6eHnz++ef42ZVXwm61wTIlTW2HPuTs+ObWSaJAbmVowj8hR8hFhNvggwI7GZe79ZZbMWP6KQpwYs2Zu0MT6EN/f0JupLEnvhcZuHF1V42wE9A9/PDDmHnhjyBjcg47O/nQTm52nRByBFlkkI2kl4SAnL6wzeoXVyMvNxdOu0MFINjJzQ61we0n5EbqzHwvMgATCnJFhYW4eskSFXwQ0BFygzu52V8TcgRZZJCNpJeEgtxnn36KX91+u1q5S0VYLTaCjtO8DM8AITdSZ+Z7kQGYEJCT8Tj5a2pqwmN//jNOnTFDs+asGuRkJS+j0MIzq0VHyBFkkUE2kl4SAnJ6AEJg9+o//qGSgu02W6gcugDObrPDboAdQWdG0E0QchNa40HPjTNu9Tw5ppCMBJVEey9hIKcHHwoLC7Hsmmu0mQ92F1xWh7LiFOQMoCPkCDmb3QabzQGbzYk0hxsRSy0NN+NBrzJi3BqneoVN59JBR8glGsDGcj8JB7mPPvoIv//d7+Cw2OC2OuBKs8NpCVpyAjnOhDCMUZkNdBOw5BTEBmYoaNOxBopehs1XJeSSZj7qWOCmfyZhIKePy9XV1al5rNPdGciwOuBOs8NtscMhQnfVxIAToBNyesflduxjcwkDOX1cTpvHWoiLL5yJaXaXAl26xR6y6MSqo6tqVh0QcoTb2OGm6yqhICfWnMiBDw/g2mX5mOGehgybE+lBt1VZc4SciSEfZcgZx+ekzFLEUksyQZ+BBx0gybBNKMjpyxRWVlbiqaeewumnnAq3zREKPih3lZAj5GKyxgMhlwwAG8s9JhTk9HG5o62t8BUW4fxzzoXb4VTJwY5gwEFAR3fVrDqYREvOGGQIs+D0oAQhNxaAJMNnEgpy+rhcd3c3yg8dxhXzF+LU6acoyMk0Lz3wQMgRcnabFWNKIRkuukrIpWQkNRJ0ExJyYtGJNfeH396P88/9oZqw73I4acGZ3oqlJRepE/PYyMGIhIOcAE7G5ro6O7Fl0ybkZOfA6XRq5dBtdjgNbqtu2dGFNYtlNwHIicUWacYDLTlacrrrOM7tf4zz88N+XJYqLC8vx9KlS5GRkaHqy6lxOULOxBYtIUerbWSrLZJ+Es6S06mnrLmuLjz00EM4//zzYZcimsYghMDOADyO05nBmpsg5CZ9jQemkESCSaIeS2jICfA2btyIhQsXapBzOsMtOkLOZFYdIZeoIEnk+0pYyOnpJJ988gnuvPNOzWV1OAbSSWjJmQxwYqkScokMk0S9t4SFnO62dnV14bnnnsM555wDh8OhIq2hsTlaciYDHSGXqCBJ5PtKaMjpMyC2bt2KRYsWwe12a2s/SM4cLTmTAY6WXCKDJJHvLaEhp7ussiarrOSlgg+y9gMhZ0LAEXKJDJJEvreEhpzush49ehSvvfaairK6nS5CzrRJwXRXExkmiXpvSQE5gZ0EIGTx6enTpmmJwbo1F6wxxxQSppAMWxmYKSSmSfyNBNqEh5y4rCJSTHPdunU484wzCDlachjz3NXhZjxEmpRvnAXB8ucpA8aEh5zussqk/S+//BLz5s7FKdOnK5eVk/bNYL0Z2zhBdzXStC5CLmUgFsl6Mx5LCsiJJSeR1paWFvzxkUfwowsuVJCTSfv6/FW6q0YYpOr+BCA3XBUSQo6Q0y2ocW4nbe6q8bq6yyql0Xds34ErFl6OqekZoQCETNon5MygA0LOaKFwf2zzWJPCktOBJ9bckSNHcN+99+LcH5yj1ZkLAk5W9yLoUh10hBzBNjawGfWUdJAT4G3etAk/vfwKFYBQLqvFqgDnUNN+pCNoQuilGvSiDLkwF5aVgY2gSOb9pIKcuK3yV1FRgd/99nfKZbWmWSBis1rDREBHyBFy2rqqY1x3lZBLyXG6pIKcAE5AJ/NZN/xrA+bNmatcVrvNBhEj6Ai5VAOctGcSLTljukgY3LjGQzJbbZHuPekgJ+Ny8ifJwQ/+4QFkuNNV+SUj4GSfkCPk8l/SgRXBkiPkUtJqSwnI6S6rTPV64403cPHMi+ByOmnJmSJBmJZcpE7MYyMHI5LOktNdVoHdF59/gXvu/o2WHOxwhIGOlhwtOWXJDTfjgZYcLTnlE47/n6jkyQ13G2LNbd++HRdecIGy5owuKyFHyBFyI1s4ZrEAk9KS0625np4e1NbW4p7f/EblzUnwwWG3qwAEIUfIhSDHCfqmsdoigTupIScuq8yCKC0pwRWXX46M9PSQy8r0EUKOkKMlJ9BLWsjpLqxEW8VtlVW9xG1VkVVZ2csUA/Fma+cEAg9q7G0F8teuDIrsPzMGeRr5QyqRyPeC51qjrdi1bPVKiCxdvQLL16/CzZtfwm0FG3Dbtkiy0dQWVSQrKxbHkh5ysj6r/MnY3HXXXgunrAMhIpAzrAHBifypAERCLhZQSLVrJD3k9JSSjo4OPP/888qak/UfXHantg5EsKgmIUfIadYcLblUg9ho7Ul6yOlBCIHd/v37cfev7w6VYeJaEKkANmMbaMmN1qH5/tBxyJSCnNSb+/eWf+PSSy5ButvNCsIpNy5JyBFiQyE2mk5SAnK6NSfbQ4cO4cEHHsBZZ5yJdJc7VHOO7qrRIkrWfUJutA7N94dCMGUgJ4CTv87OTnz44YeYM2s2Tpk2neuzppQ1N0HIsfy5qaO6KQU5GZeTlJLW1la8+MILuPQnl4TG52jJJav1ZrxvQo6W2lBLbTSdpBTkgsYcJK0kEAjgzjvuwA++f3YIdCyTbgRGMu5PAHKqjFKEKiSRyiuF5c8xT240eCTL+ykJOT2tRKqULLlqcWhsjgnCyQg24z0TcskClkS6z5SGXH19PVauWImZP5qpEoNdtmCScEqNUxkhkOr7hFwiwSNZ7iUlISduq15c8/3338d999yrimumO1wg6JIZhFGGXJgLyzUekgVio91nykJOQCdu6/Hjx7G9bDtm5eYhw+mC2+4g6JLWkiXkRuvQfH9oYCLlISegk3JM615+Geef+0OkO8WasxN0SQm6SYScMcgQZsHpJdNpyaUKMFMacro1J+WYKsrLcfddv8a5Z/9ALYhCtzUZ3VZCLlXAE8t2mAJyYs0J6N7dvRvLll6D7804VQUiGG1NNtARcrGEQ6pcK+Uhp+fO6YGIV9a/gvnz5sFld6jxueFKMunJw8YtoRhvKE4AcuKWRprxQHfVNLMgTAM5HXYNDQ14+i9P4/zzzlcT+F2OyCWZjHDT9wk5Qo5FM4cO7Ce6xWcqyInbKutCyNzW+39/f6hKSVhJJim0OViCNekIuSSFnF7NV1UHZj25RIfSZN+f6SAnoGtra0NpaSmWLrka0zKmqmlfI4KOkEuQcvITdFcJOdO4ppEAaSrI6dFWAV1TUxPefOMNzM6bhRmnnDJQkmmwFWcooU5LjpYc3VW6qzFdd1UfZxvvViAn0t7erqqVeLM8an6r2+kKwc5utcEoXOIw3oCT69OSi2Sp8NjI4DWdJWcEokRcBXQPPfAgfnTBhWrql9Sgk/VbjQtVqxXArLYEcdkSATbxugdCjkAbGWiR9GNqyIk1J38ff/Qxfnvvffj+mWepoINYcIRcvEA20nUJuUidmMdGBp+pIadbdZIoXFZahl/8/H8wNSNDWXKDrTm6qyPBJ1bvEXIE2shAi6Qf00NOt+ZkgWpfkQ+LfvYzTJ82DQ67PcyaI+RiBbKRrkPIRerEPDYy+EwPObHm9EDEkSNHUOwrRlZmJjLS0wcgZ7Go8TiHxYbBwojrSFCa7PcmCLlIMx4iTco3zoJYy8rAqQJPQi7oswroJFFY1ofYuGEDsj1eWNMsOPk738V3vv1/YU+zwmEZLAxGxBbyhFyqgCeW7SDk9IG5oEXX3d2Nhvp6/O25VSqHToIQU757MuxpFkIu7uWZJgA5ZbFxjYdYQiXRrkXIGSBndF0PfXUIK59ZgdzsHNgtVpWjpfK0wqw5WnIJb8kRcqae7SDAJeQGQc4IuoMHD+IvTz2Fi380Exkutyq2GQ46Qo6QW4llq1di6eoVWL5+FW7e/BJuK9iA27ZFko2mB048rDxCLgLkjKCrqKjAk48/oYptSvl0qSosoNNksgfWeb6RoRlldzUsGMHKwPEAUjSuScgNAzkddDJGJ+XTH3v0z5h5wYWqBl26w6nKp7O6cKyhTMhFAwKpfk5CbgTIGUEn5dMf/dOfkPmTS1Qaiaz85bYPwE6AN1YZ2VqJNTiS6XqTCDljukiYBcc1HlINeoTcKJDTQScpJp98/LGy6DyXZCrACeR00BnBNRrsjJ/l/nggS8ilGoBi0R5CbgyQk4/IZH4B3aeffoonHnscP555Eaa5M2C06JwWrcMScuMB13g+S8jFAgqpdg1CboyQM4KuqqpKpZdc8MPzNdCJRWd1wGUxLHUoAYowccBpC0rc883GA5ZE+uwEIMc1Hkwf0SXkxgE5+ahYc1rCcANeeP7vyPzxJXBb7EgXsTrhClYRHlxCPQQ4BbpEAkcy3Qshl2pWVizaQ8iNE3I66GQKWCAQwJrVq/HT+Qsxze5GusUBt82pLLghkLM7QmXWdeCN5taO9X3zjOtNEHIsf25qa46QmwDkdNCJVSeu66uv/AP5S5ZixtTpcEnE1eEMVRjWYSdrSIQk6LaOFWKjfY6QcyLN4cY3LBZkLl6E5Y8/iBteegb5IiqKKovXrAwKF7KJhfWUSNcg5CYIOfmaHoxobGxU60UsvXopzjrjTFVh2Ai6ENx00BFyE6yyTEsukeCRLPdCyJ0A5Iyg6+zowIcffID8a5bhB98/O2zNCEJussb9CLlkAUsi3Schd4KQk6+L29rb2wupMCwT+++9515cEFy8OsOdDn2BnBDsaMnRkts2cqHHRIJEst8LITcJkNNBJ+7r8ePHIRP7n/vrs5g/77KQRSeg011YBh4matnRkkt24MTj/gm5SYKcDjqx6gR2hw8dwvp163D1kiU4bcapCnYCOR10LvvYp4Ex8KBDkZCLBySS/ZqE3CRCzgg6gZ0KSLz5Jq6/9jrlvk7LmKpcVxWBHcdcV0KOkEt20MTz/gm5SYacfjqx5kQkn+6LL77APb+5BxfNnAkBXbrTDbdDyjZNjjXHFJJRUki4xgPz5Ipfx5O7irDPX6530Qlv/2PC30zRL+qgqw4mDs+bO1dN7xLIGee9ngjwCDlCLp6WUqJfm5ZcDOAqrqtYdNXV1dj61lu4/Ze34funn4kMsejsTgU7Qk53SUfaTmBMjuXPTW3FCYAJuRhATr+EwE6WPdz9zm48+sc/Ye6sOTh9xmkhi04v2zRe4NGSG8GSI+QIuW2bcCfdVR1D0d0K5EQkp662pgZrXlyN5dfk44IfnocMV3oIdoTccNYcLblEdw0T8f5oyUWXa0POLpCTcTr5E9jtefdd/Pbe+3Du2edgevpUBTsZr5MyTTrswks26SWczFi6KcqQC6sQzDUeEhFYE7knQm4IhmJzQIddV1cX/FV+/HvLFiycvwDfO/U0lUsnE/tlcWt9gv/grZ5QrG2Hs3xS7TghN5FObvbvEHKxYVrEq+juq8ySaGpsxLu7d6t1JPJyclU+nSxsrScPD4GcPtlftmoFsVQDWqT2TCLkuMaDacbqCLmI+IndQR10spUIrEwJk5kS/3Prz3GRrPfqTh8o0WR3KMsuNAdWBx0hN3yppeECD4QcITfBbs48uQkqzgi7trY2vPfee/jznx7FwgULcc7ZP8DU9IyQVadbdyHYEXKEHCf8DwttWnIThFK0viZBCQGe/ElVkx07duBXt9+Oiy+6CKdMm66sOiPk9H2HXnZ90HbU9BJZfGc4Sbi1KCbgrnKNh2E7v1nG6gi5aNHqBM6rW3UCPAGdLG79+muv4ee33qoCEzaLVQUlxJJLd7nV+J0asxsEOAEfISfrqK5A/pqVQZF9vWJwcBsWVeW6q6kGP0LuBGAUi6/qY3Uy2f+DDz7AK+vX48brb8APzzk3VNnEYbdDic0+EI0NAo+QE5Cx/HmqgWs87SHkYkGqE7iGbtXJVlYJE9htL9uOZ55+GtcuX44fXXBhaKxOrDl9nE53Xwk5Qm48QEjFzxJyJwCgWH7VCDu5rsCu2OfDww8+pPLrpBKxjNnJGJ2IAE+SiQk5Qi4VwTWeNhFysSTVJFxLYGcMTkgkdt++fXjwDw8gLzcPZ3zvdBWJFYtuuLmwYeAbLuggx8cyphfTz0ww8EB31dTBB0JuEsATj1Polp0AT5KJj7a24oP3P8DKFStx+YKFarzOlmaFPc0Cl80eNi82DF6EXHDZwmAQIpQ/9zTy1w4Wg1UYDGQsW70SIktXr8Dy9atw8+aXcFvBBty2LZJsNDVsxmN9TeZnCbl4EGqSr6kDr7OzU00R27VrF1584QXcfONNuPhHM3FKxjRlldmmWNRWt/AU7Ag5Qi7Fc+wIuUkGTjxOp0NOri37YtnV19Vh544dCnZ33XEn5s6eg9NP+54WmAhWJBbIqSIAVkfkXLmYuqJjcY/prk6mhWOWcxFy8aBSFK+pA0+28tfR0YGPP/4Y615+GXfeeScWzJ+vpoudfuppqgS7WHVum1ODXBB6Ye7sWEEXwSLUI7z6dkLnDbs+IWcWME1mOwm5KAInnqcWyMl4nf4nrwV4e/fsxZNPPonFV12l6tiddsqpmOrOgFpcR4BndyqXdnAiscNiQ0SxCniCsybS7HDqYrGr43abHXZDkvKJgW6CkIuUDBwpATg0Hidjb4PH4+Q1x+QmEz6xOhchp1Mghbc68GSrghRHj6KyogJFRUV45OGHseCy+SoqKxFZmU1hmZKGKd89WatuEjwmZZ8kiOGwWMPFADl3mh0iriDoBH42myY66Ag5LiodK7jp1yHkUhhukZomoBORxGIpxX748GFl3f3zn//EQw89hMWLF+Pss89WsNOnjUnenYDPIaWfVP6djJ+JZWdVxwRmLosGOB10YtEpyNmDkJPZGGGu51jG4AZ/ZgKW3HBVSGjJmSbSS8hFIkEKH9MhpzdRf93S0qLKPBUUFGDVqlX4zd13I/+aZcjJzsH3zzwLUttOICdw0wFnt1rhdDi1YIbVDrcBdMqas9gRd3eVkDMNzHTLbfCWkNN7uwm3OuCMTZdj4tJWlJfDV+TDc88+h7vuvAs/++mVyPZ4cOF55+GMU09DhsulwOdyOjXQyewKgVxQ0q0OZd2dmHtKS25wh+Xr8bv7hJyxh5t4X+BmnElhVIUELL74/HNs3rwZjzz0EJYtvQaZP7kEZ572PZw241RMnzpNW5tCghYWO1xWh4rYumxOtS+vJwd2E3RXV69A/uqVQZF9vdLISFuu8ZAqQCXkjL2Z+yENCPB06AkApWqxJBu3trairrYWBz48gM0bN+GxR/+MW2+6GbnebEhairi1EqRQ61OIC2vTI7baeJ5bTTdzhMb2rCenwfLdKbCnWZHudI0839Zmg9NmhT0oNrsNNpsDNtsoSxIScqZ2WQm5ULfmzkgaMFp6Aj9ZgKepsUm5tZ98/IlKPN68aRNWrFiB3//+97juuuswb+48XDRzJk6bMUNBTR/P07cZTpeWrmKRcT67Sl+RFJZ0h2uIqHw+uwMuh5SVssFut0IgZ5fo7xggt3z1SojkK+CNZMHp79GSoyUXuUew/HlkvST9UYGcLnpjjK9lecX29nb4/X6VfFxaVorXXnsNa9euxeOPP47f/PrXuPXmm7F0yRJcNneucndnnn8hzj7jLMyYOj2Un6fBTLP+Bu+77FJKykbIpfg0rMmGKy05vcdyOy4N6Jad7tIO92WBn7i4hw8dwv79+1FYUIB/vPIKVq5YgUceehi/uetu3HTDjbjqZ4swf+48zM2bjTxvDrIuycSPZ16MC887H+f94Fz84Kzv4/tnnIHTTzsVp0yfhqlT05Geng6XKx0OhxsWhxvfsFiQuXgRlj/+IG546Rnki0h0VSbP05IzrctKyA3XO3l83Bowgk/gJq9H+5Py7g0NDfj84EG1JOPbb23FP199FauefQ5/fPgR/PrOu3DT9TfimiVX4/L585Gb7cWPL74I5/3wXJx11lmYMeNUZGRMhz19Gr5ltyNryVXIJ+RMC7RIViAhN1ov5PvUADVADRg0wDE5gzK4Sw1QA6mnAUIu9X5TtogaoAYMGiDkDMrgLjVADaSeBgi51PtN2SJqgBowaICQMyiDu9QANZB6GiDkUu83ZYuoAWrAoAFCzqAM7lID1EDqaYCQS73flC2iBqgBgwYIOYMyuEsNUAOpp4H/D9+xWlBseisiAAAAAElFTkSuQmCC;" vertex="1" parent="sfzHv9pNvOCN-W0HhA9W-4">
          <mxGeometry width="73.87" height="80" as="geometry" />
        </mxCell>
        <mxCell id="sfzHv9pNvOCN-W0HhA9W-3" value="&lt;b&gt;Logstash&lt;/b&gt;" style="text;strokeColor=none;align=center;fillColor=none;html=1;verticalAlign=middle;whiteSpace=wrap;rounded=0;" vertex="1" parent="sfzHv9pNvOCN-W0HhA9W-4">
          <mxGeometry x="7.930000000000007" y="74" width="60" height="30" as="geometry" />
        </mxCell>
        <mxCell id="sfzHv9pNvOCN-W0HhA9W-7" value="" style="group" vertex="1" connectable="0" parent="1">
          <mxGeometry x="580" y="90" width="82.78999999999996" height="104" as="geometry" />
        </mxCell>
        <mxCell id="sfzHv9pNvOCN-W0HhA9W-5" value="" style="shape=image;verticalLabelPosition=bottom;labelBackgroundColor=default;verticalAlign=top;aspect=fixed;imageAspect=0;image=data:image/png,iVBORw0KGgoAAAANSUhEUgAAANYAAADmCAYAAACpmXuDAAAgAElEQVR4Ae2d+Xsc1bH3/W9cdsLlTULeG0KWNy8keRLyGGMIxjabjcHGBsLFQNjCTiABzBJIAGMW4wXv+y6vkldpJFn7vo52aWY00uwjjUYyP3zvrZZLqhm1pJE1mukenR/6qRp3Tc9xqz6nzqlTfXqGzx8AH+H+AQxc+H7Eweel7A31jbCj70ob1v2BoK5tsKdX116vDX3hfl1b1ebhv5+6z8P3gnwvmb4xg50/2Q2R7VBgDTuI6sCG7wX5iFl8Q4GlomyEs6qRQeSITXb4rMcyMlBgKbAUWP4A4j0ymEHzHD5CfWFQjxV98HkpqSHRdvRZ2khdz7anN6Rrr2dLvyevx7pq8/Dfj+6J3r1T9znSp9l3pIy3P8+QY1YKcRzupJQ2rFNDpA3rfF5KmkTyeSnJCaQd69KGdboJfF5K1ebhoYu6z8P3gnwkmb6hwBplQjx1TnoBPp8XPm83vF4nvB4bPN1WuDtL0eMqQsB+HN7mLXDXfgpX1ftwlr4KR+Fy2M8/DFvuAu3oyJ6Ljqzbhw577j2wn18Ie+4C2PMehr3gCThKX0VnxbtwVv8b7saN8NuPo9dVhB5fHfp6bAiH3PB5nRfb4YHP79c6P9WBjZ8sicU3FFhTClYP+vv70NfrQijQgh5PJYJOC7qbdsFZswqdZW/BXvgkbOcfxCAss4dgkeDEU7flzNcgdRYvh6P0Ta0d3Y074Wo/BY+9EH63VYOuvz+MgQsXhkYJyez95QiFRzBSGrEzUGDFGSyv1w2vqxluex7crWnwNW+Cq+ZjdJW9CHveYthy5sJmuRMdWVMPUWxAzh5sT/bdsJ9/CI7i5+Gu/Rjepk0I2NPR4y5DONQJn4+iWmRvTp+l07OupgnfQ4E1inPEEu7ZkQYG+uF1VqK7aZ829OoseRm2gsdgy7kPHRpEw8O22JzdAPaWO2A7vwCOwsfhrHgdXTWfortpPzzOClDnwZAN3QNRWKDA+h4zKMTzQckEcqjog89LSTcv2o4+SxvWA8EeXVsK4Wwjpd51Q31hXduktdnngsdZhq769XAUPQ173iLQMKvD8id0WIwSjeIF6Gzt/2XT5nKL4Cx9Ae7GTej11sLvc4/4u0x73wgEodaxYl7HGkB/fwg+Vz26rZu0hEKHZc6Uz4mMHOFs2XfBUfgUuuq/g8dZCa+3Gz6fL+5rQhwdRxt6UucqbVinDlovovJ5KakziNWWgoCeLQUKvqYCayywBgYQDnnR66uH33YYXRVvwpZzj4HmR/GKSJO/ji3nXjhK34Cr5SAC7hqEQx70D0Qup7DTSRmLk0p7PYdWYIlxON0gSbiRbp7X54W3ux5+RwbcdZ+hs/DPsNEQT6S4lT4KjJY74Sh4DO66TxFwZKAv2I7BDOP0KtBWEUtELK/XBbejGM76tXCUvKRN3o2TvRvFkQ0L+2zY8xaiq/xVeJo3otdbo5tZVBErKtUa7zFpMiOW1+eDx56PrqpPYM9/BB3Zd1+MTqmWhEgOnLbsuXDkP4LOivfhsRdEAJayYMkxK/0npYOzLm1YJ7D4vJR8XkqaREob1mlsLO1Y5/NSTskiIAHVWYruqvdgz75LDfUSEP3sOfPhqv4AIb8VAzSHNapvXAwk7JNSxtLmabmO5fV0wmPPg7PqnxeTEcnpyafzPI3KsFy1/9IWoOnv4fMNllRxZ5r0TleBFXuU7Qm64bbnoqt21WAZkWGqH6Yv2FTj6Kz+HG5bDjTALjq0Aitq7iVDJuuxhE62Jcm9lpSTGQpSvV6vtxquuq9gz18Km+UONexLwLAv1ohMJV62gmVwVq+E214EmvMqsAwOVq+/Ax1lX8Ke/wRsQ0mJ6RshYnX2pNhZ5sCe/zi66r5DqMeV3Pn3ZIeClIRIxSMQ8KGj5iCK98xH0Y7bUbH/NjSfnoX2TAVVUqCZQISkCOYoeBw+exZ6egef7jWbj6bcOhYN+7ydlag5/TcU7rgDBdtmDh2lu2eiKYPgmqWGghNw9GSBSLWJzpqV8DhrQIv2NDWQUwbWadgopw2s0xSEbaTk81ISuNKGdWnDeixLBCkFVm/ADnv1HpQfXoaCbbcNASXhKt45E/XHb0PbOQVXsoCZ0O9a7oC96C/objkMr7td1/kVWFNV0jQwAK+9GNasd1Cy525doCRchTtmoubwTLSeVXBNyMmTGeVy7oWz8p/o9VaBHtPhiEJSgTUFYPUGXbBXbkcFRants8aFigEr3D4TlQdnouX0LHSoeZcphsZUTd9Z/LS2fUE4PFxhrsCKM1hd9jo0ZH+I4t3jRykGKlpW7J+JljMqqWGayGWZDXvuffA0rEa4z6dFLkOCJUOqWUqa6HEEn7MS1elPo2C7/lwqGqCxPpftVXCZBiwejtLcq/h5eJzVCAb1kxrJ9GfTlTT19XrQaT2MsoOLYh72jQUVnyvdMxNNJ1XkMhtgtODvaTuG/j5/xLyLAoYCK2qIyGlNKYPBHvR4W9Fa/HVMCQoGZiKS4GpIv02l4zkqmETazy+Ct3kjwj02DAwYY2cpU0QsKnFx2cphzfwHinffFddIFQ2egsucC+haUW/1hwgF24Yil4pY40QsZ1sxqo4/jaIds+Myp4qGKfpzCS0kn1SRy2zDQpvlLnSVvoBQoFmDK6lg0eo0H7SbEjUm+uDzUtJKdbQdfZY2rFPWRs821BfWtWdbn98HZ1s+SvfdO6VRKhos+lyyayaaTxFc5uzBzQZFPNtrz30AQdpVOODX9Tv2Synj7c+GrbzoC/nhbDyGkn3zEw4Vg0ZwNZ1SCY14On2irkVPgvttGegP9wwNDTkDLufurE+LkibK/Nmrd6J0/4KkQcVwadlCrb5QRa5EQRGv36GMod92BOFwZDqeYZIy5cHyuh2wVW5F6f4Hkg4Vw0XrXCoVb86OxZG3GL7WnRFlUBIo1lMaLK/Xg6aiNSjZO88wUDFcXKERr95UXSdxoFLG0Ne8GQPaix70H6RNXbB8PjQXrUfhjtsNBxXDVXVopqqKN8na1oiOy3KH9nokKuDlKCVl3MGijB0f9Pi73sHnpaSGxGpL2T89W7oGXbM36EZbqbGhYrioKl49z5W4aDMCkEmATbsYdzdsBs3hpS9rPhhHf6brJX2BuK/Xq82pSvbMNWykYqhIUlV83TG1xhVPh0/ctWbDlrsQvtZd6I9KaFAnLyMY65xJlJLS9HxeSgKK7ZIKVk/QA0f1bkNk/yQ84+lFO2fCelytcSUOiPhGSHveQ9pe/PK5rpQBixIVnQ3HUXZgoSkiVTRsg9UZ6kFJ88L1MIJdWUMRJmXAcrbmo2T/faaEiiFTmcL4RpJEQ2rLvVfbMJSGbykAlh/OjjKU7Lvf1FAxXDVpav+MRAMRz99z5C/VXtjQ0zv8bis5b+I5k5QxzbHkRegL8gKsSxvWiXA+LyWfl5Jq/zSbgQsIuhtQm/FsSkBFcNH+GdYTar4VT2dP6LVoq7XSVxBw10W8zJx9Wvox60P+HFU8TplvtklorSBtntlgeXewSl1sS8a9v1mlVlN48jZT7BuRUKedRGo8oe20zEFX9ScI9zpHBAsGRUpDgdUX8qG9dC2Kds1JmWglO4KyfWrXp4TCEGdoaY3L17IN/f29EXBJoFg3DFja4x+Nx1C6756UhIoBq06jxWNzT+jNDMdk227PvTciU0jDQYZJSsOA5bJVojxtSUpDRXDR+pZ6tN+8HYvt/AL0dOXEJ2LJUqNQX3hEqQetJksb1il5QeeiDz7P0utqR03GCykPFUet8n2DexWqyGUuwOh1Qr62AwiFeiJ8mv04Wkb7PX3u6Q0NsTKllRfhviBaCr9AYRy2KGPHNbqkkqfaIyoFP9lhWSK/T+9KdjdtgddjHzH04+yglDGl2+UXaOwox5KsSxvWx1tQ6x8YgKPugCEfAZlqOIvpyWOVJTRFllR7pKRlO3qCXTH7flLB8jkrUHn08WkzBIyGtXy/SmQkMupcym/ZLH+Ct3k7+vt7zFF5QS8Na8r5yNDPVkWDMBWf1cKxcedZjtz74bcfB42saBQ23giMR2okkxKx+vvDcFqPonRvaqfWYwGRXhnUSi9diPOai7repQOrvdSu8AkEnWcwcGG40ijuYNG8ig/KbBCN0Qefl5IaEm1Hn7ttFag89uS0SliMBVm1eurYMB2LLXsOusrfgNtmgc/nGfJ78uvR/Fn6POu0TaCe71PmkG3iWtLU39+P+pyPJ/Q6nbGcMhXOUdRqTFflTsmOsvT+abf1a4T8TfD5fCMSFQSWHO6xzgk8KQkePi8lgcV2cQXL3W5B0e7ULFmaDOSVB2aiTb3kLkmRazYcBY8i6Dw39Nofdn4pDQsW1QLG+w0gk3FmI323aKgCXs23Ehm5tChV+zH6euwREUYCxbohwaIXareXfaeGgGNU7FPUolezqoqMS088xAqlLXse7MXPwmc7hnBf5GadNHRjmKQ0JFgeRwnK0x6ZtmtWsURHilqqjnCKoSKgip5Hl3UTPK5mLcEg50CsS6BYjztY/GMkaVLGPySltGGdGkI2bpcd1pxPULjzDgXWGBGL4KNH+dXWaVMAV/Y8OMtfg79tL0L+RtAbPy/Vn6Xfk87+LiVlBKPt6DNl1dlu0rWC9oZzKD0Q37crxhIBzGhDdYSNqtQpbkkMW+596Cx/G+62Ewj32kFTEnZskpcSKKKBkddjfcrBcnfbYLV8hIJtk38PsBlBuZQ2l++dGTfHinXOkVp2s2HLewRd9eu09w/Tbl/BnpFvFDE1WPamHBTvM/dOS5cCx2S/05ih1rXGh/0OUFbPfv4+2POXaC+U8zSuhceeD5+vO2IoRutHHE2kNGXE6untQV3m+yjcMRuF229XxwTuQeVBmmfciQ7L9D6oCNaeMx/0WLzt/IOwFzwKe+FT6Cx9Gd1VH8DbvAEBRwZ6/VaEw4OLstFDNfpsSLAoCXEpB4HVUXMI7eU71THBe9BRuRPupl3wNE/3Yzc8bYfg7TgGr/0c/M58BNw1CPrtCAa96O0drDq/FP9M9nfiWnlBYVivR4mlBER+T4Zz1injIm1Yp4kk20jJ56Wkmy1tWJc2rKs2ByLut7rPw/cjFt9QYKnOIKKzUR3Y9xH3gztaKRVY/uFehm6MiliR94MjtpQKLAWWNlRRQ5RhWGLpSWXPK4FiXYGlwFJgRUVkBdZwJ0MdSDI73UlXXsgekHTu+aSk/2C0HX2m3lHasa5na8SUKreXpGrzcE9PQ269+yHvF+up6hsKLNUZRECgOrDIqMcdgJSxdAYKLAWWAssMm8lIslmPhXC2Jak3jFA9aXx6UnWf9acr8R6+qoilIlZER6Y6sPh0YDMomvBBu89QZin64PNSEuHRdvRZ2rBOSQo921BfWNdez5b+4Hw9KVWbh/9+6j4P3wvykWT6hqq8GGXoSXDLYRPrBLjeUJXPS6nWhIYzhXRf9O5bqt5nBdY0+4NL55adAOuqM4hPZ6DAUmBFRGYFlgJLG1rQWJp7Wyllz8y6qhUcf2KuwFJgKbBUSZPWqRqxM5hBjeKDJubyoKzKsy++jPlz54045s2dh3l3zx1x6NnSv+nZ0jX07HVt756I7Vz9647SDr02JLrNr2zKxIqMthHHexlteC+9dcShZ0v/pmdL19Cz17VNn4ht6/B109vwyekOrLbYsL2gExk13ajo8MHhCcIX6NH8iv1MylBfOMLn2P9odCHtWOfzUtKbFPm8lNJG6tKGdfo9acM6n5cyljaPuY5VVlWPX/78l7jiPy5TxxTfg1uXf4RHttWb/li6rR7Lttfj0R1WPLbTiuf2NuCz0604WeWEp2dkbSgN5XmoLiU5shzasy5tWCcI+LyUlHFkGymlDesElrRhnc9LGUubxwRr6869uOFHP1ZQTTFU1HHdOGsBlmypNT1Yo3UOBNszexuxNteBso4A3MEwwgOxvWtKOjU7vJSmAqvb7cWrb76Na6++RoGVALD+86e/xsJv81MWLAnc8t2NWJlph6XJB6c/rBspUjZiNTS14MGHl+DKy69QYCUArGuv/wnuen//tACLIXt6HwFmg6W+C10efwRgKQvWOct53PrHWbjysssVWAkA66qrr8Otf/l0WoFFgC3dXo8XDzRi8/kONHV6h+AyPVhyrCrXhPYdTMNNN/1CQZUAqGiOdeUVV+HXC57H4s3V0w4uAuzxnQ3415kOtLoHd9KieZP0TdblfIt1gpDPSyn9mW1JShvW473GqVt50dsXxr8+/xLXXH2tAitBYF1x2eW4cdZCLFpXPC3B4uHha4dbUO3ohT+YgmB1ubz468uvKagSBdXF37nh5lm4b9W5aQ0WAfb8/iZk1rvhipp3UXSRkYd100Ss+sZm3L/wIQVWgsG6/sabMWfF3mkPlgbXgSacrHai2xuZ1GCYpDQNWAXFZbjlt79XYCUYrB/88Ke4/ZU1CixKamyrx6uHmmCp74ZbwCWBYt2QYHHpBslQX1grDUk/eQY/UgvDCe9Yrrz6OvwhRSoweM40GblsuxVvHW1Bjc03VG5EEEUfo5UjsT9H20ufZ52uEW1Hn/l8tNSzpdIqthtRedHt9uCrNRvUwnCCoxWXjf3m4VexeHONilqivOurLDt8ocGnGDiLJyU5M0cvKQ1V0uTs6sbf33tfrV8lCaxfzX8Si9aVKLAEWI/vaMCRSjfC/Rd0U+WmAMvm6MSfn3wm4cMg7rGnu/zZ7EV44OscBZYAi4aTz+xrQm2nfgreFGC1trXjzjnzFFhJilg/+d2fcO/npxRYUWARXJ+dtcHu8o2IWqYAq7rOil///1sUWEkC6/qf/w7z/nlYgaUD1vLdDThZ3WUOsGiCxwdlOorLqvDjG36qwEoSWD+44ee4e8U+LNlap+CKgotS8P8+0wF3sC9iKzzK/rEPS0n+TGVN0Ye0YZ2ygtF29JnPS0kPAOvZUuRkuxElTdnn83HVVepRkWTN9a6+7sf409vbFFhRUHHa/vn9zcht9kVkAQkgmSVknZxfZglZ5/NSTnmt4KFjJ1S0SlK0IpivuuZ6zHplbUo/9MiQXIqkJ5M3FzgR6LswBI0pwPr063UKrCSCdcVV1+KPz34+bavcx4ONhoPvnGhDs2v4fdKmAOuNdz5QYCUTrCuuwu+Xf4TFm6rUHGuU4eBTextxvsWP8MBg1DIFWH996WUFVjLB+o/L8Ntlb+HhjZUKrFHAoqi2q6QbPX2DcyhDgsUTOpKU0fjz408osJIM1i2PvIGHN1YosMYA66OTrbC5BivfTbGONXvOPQqsJIP1/xY8j4c2lCuwxgDrhf2NaLz4KL8pwLr5D7MUWEkG6xfzn8RD35UqsMYA67EdVpS3urU0uynA+sVv/qjASjJYN815FIvWq0Lc8TKE5+q6zQPWT3/1GwVW0sFapsAaI1oxcPtKHMYFi1ac5XHdj1U5U7KqLvh3b5qjwGJ4xpKb8zsjfFf6cbL1ESVNCqzk71P/szsXT/vdmsYCis9tLOjUqi8MmW6X9VJUW6XASj5Y/zXzfixaW6SSF+MMB1dn2xVYPMxRcnxwb5z9sIpY40BFUWtDnkOBpYAaHyi+R2qOFdvrjLYWOc0D1g//789VVlBlBU0xDD1S5TYuWNElTT+/+Q8KrKSDpdaxOEExmqQq99M1g08Tm2KB+JZbb1dgJRmsX96zHA99V2aKqDGa40/1v9PbIk1VeTH77vsUWEkGS9UKjj/HemF/g7lqBR9Z+pgCK8lg3bLkdVXdPk5W8J9adfvgjk2mGAr+5ZnnFFhJBks9jzV2xKL51bZ829DbSAwJltxthnafee3vKxRYyQTr8qvw+yfVE8RjzdGe2t2AzNpueP0B7RlCAkv6Mevkz7xrkpR8XkoqgZI2rEsb1qnSg89LGeoLD7VjREnTZ9+sV2AlEawrac+L59SeF2OBtSK9bejNj5TVNkVJ0/60owqsJII1uEvTt1iyRb0YQQ8u2qVpW5ETwYuP5ZsGrKzcPFx15dUKriTBdfV1P8Kf3tqi9hUcJXnx4sEmFLVGvtnRFBGrtLJW7YSbJKiopEnthDt64mLp9np8kWmHt7dfq7jg4gZTgNVqs+OW3/xORawkwfV/tL3bj6jFYZ2I9fTeBuS1RO6Ca9ihINHOB2VXbHYH7rxLvW2EC2ITLX/y2ztx72fqbSN686svs+xw+XqG3ppI/koHvUmRfVhKPh8tpQ3rlBWMtqPPfF5Kyv7p2dI12G7EGx3p/VhLH1+uIlaSItbPZi3EA19lq4gVFbFePNCEZldIexRfPkNIOjk5DwulpFR4tC19ljasExSx2lLaXc+WoOLrjQBLvdEx9sc7piKa/Wr+f+PBdcUKLAHWE7sacMbqQ/+F73Ud2hRguTxerF63Cddcrd44MhXgjHfN3y5+VaXaBVRLt1uxMb9zKL2uFylMARY1/OixdPzwhz9Sw8EEDwevvPoH+MPyD1W02lYPygAu227FByfb0OYZfgGCqcGy5OThN79Tz2WNF13iff7aH/4Xbn/lWwXWRbD+cbwVlbbg0MsPaP5iGrBkQ2lSRo23NrViwaLFKmIlOGJd/7ObMWfFPgXWtnq8ltYES30XXN7B/dnZTzk5ICUlDfi8lOzP0pZ0acM6JS+i7UazpaSIni0NSfl6I2oF6Qtdbi9eeuV1BVaCwbrh5lm4f1XmtAaLhoCvH25BfpMbbl9gyFHZYfUc2jRg9faF8enKr3DtNT9QcCUKrssux42zFk773ZmowLbF3Qd/cLj3Z6hImhosavy+g2m46aZfKLASBNaVV1yNXy98AYs3T8/iW0qpr852oDMQ1uCRw6qUAiu/uAwzb7sdV152uYIrAXBddc11uPW5z6bdMHBw6NeMtAoX3D3DC6ymB4v+A3yE+sJDJRkd9k48vGQprrz8CgVWAsC69vqfYM77B6YNWMu21+O5/Y1YbbGhrD2AYGjY92jORGVK7JdS0rnoY7RyJOnP8jvyeqzLcqTxbOk70oZ12eYRlRccdrvdXrz2t7/jB9dcq8BKAFj/+dNfY+G3BdMCrGf2NWJNjh2FrQF4AvqlROSsevMp9k8pydH1bA1V0iQbvHXnXtzwox8rsBIA1o2zFmDJ1tqUBWvZtsEItaXAiRpHD7y9AwgPfK89yi59jvWUBqusuh6//MUvFVgJAOvW5R+lBFS00QvNm+hJX3rr4l8PNmHVuXbQS+IC4qlfjjCxFLSyLUkGT0rTRSyvz49nX3gZ98ybP+KYN3ce5s6ZO+LQs50/d/4IO/ru/LnzRlyXvq933Xl3z9W3vXtkG+j7eu0wcptf3piJ90+2jzjey2jDuydaRxx6tisy2kfY0XdXZLSNuC59X++676W36tumj2wDfZ/bQb/977M2rMlxYGdhJzKqnChv88Dh8sNzcT1KAsL6tASLewW+CVLGu8xeXpt/V0oj9kqqzfrrSso3vscMuX0TjWupB4k+pA3rdPOi7egzn5eStqHSsyVYpB3reraU4eHzUqo2B4fui7rPw/eCfCSZvqFb0iR7YtJl5GCdwIq2G82W/pN6tgQWX09KPVu6SdKGdYJQz57PS6naHFkipHff1H3+PsKfpP+wHos/K7BG6ThiuXl8o0kqJx2GVnVgASiwFFgRnYKKWCpiaUNDNRQcjhQqyg7fCxpFJNM3VMRSEUtFLH8A8R6+jlrSNN78gRoibVjXm2tQz8HnpaRhh569tGFdpdsje2O9+6buc+QwjiI4+4+Uevcu3v6swBol8aCc1DhOKkGQgLBuxE5XgaXAiujVjeikCizlpMpJL3yvzVc4mkgpAWE9VUcGKmKpzkB1BlPQGcygSZs61D1QPhBfH1DpdpVuj8jMqgXiyKSNHMqyHst6oQJLgaXAmop1LKaQJE0keVIppbRhnZ7v7wmHRxzdXi+iD5fPN8KOvuvx+0fY0nf1ruvv7dW1DYRib4c3GNS9dnR76XOi2hzqHwAfLq8P0Ye/p3foPNuRjLajz26fX9fWGwjq2svrsR4M9ena9vSFda+t145Y2kzP+pEvxdL7s8+RlH7JuhGj7CVHLF+wB3uK87E5PzviWJ99FtHHd9nnImz4OxtyMkfY0nf5vJSbzlt0bTflWXTto9tAnzfmZsVsm4g2bynIxqG6ChxrqMHxhhqk1ZSPOI7UV2rn6Lw89GzTassjbNj+cF3FiOvS9/m8lEetVbq2x6zVuvZ67YilzcfqK5FurUKGtQbZ7S3It7ehvNOOOlcX2n0+dPoGOxkGkOFimKRMKbCCvb1YdS4dD6z7Ag+sXamOS7gHD21ejedO7MPLZ9Km3fGK+D+/ce4o3s46gRU5Gfjn+dNYWZiF1cU52FpeiCO1FchrbURDZydcXq95IpYkf6IlIHkNVjy6eQ3uW/O5Oi7hHizbvQHPZxzAX08fUofOPXjlzGG8fvYI3s46jg9yTuKbkhwcra9EncMOt883tExgxEXtSa1j2btd+PJsuhatFFwT61wWfPcllqftUEDpADVeR/PSmTR8cv40TjXUoq27G75RHqSdaKDg4aaUMvCwHsui9qTAogbkWuvw1PbvVMSaYMRasm0tns/Yr8C6BLAYvJdOH8I/sk5oQ8aqLgfcvT3oGxhOwJkaLIfLjdXnTuHB9V8quGKE6/51X+C/D21TUE0CKoaLJAFGw8UN5fnI7WhFZzCA/oELWsZRRh/WOfJIacjq9pLmJjy7a5MCK0awHtr8jYpWcYJKAkY6Aba6JEcDzO52D83DGCqSEijW4w4WjRf5oF1+KHxGH3xeSmoI23l8fmwvyMH9a1cquGKAi6LVi6cOqog1RXDRHOytrOP4pjAbxR2t2nop+ypJ6cesS38ez5bS+9KG9VBfeOjal7yORQ1h2kkG+vrw3J7NCqxxwHpw0zd44aTKBEZHmqn6/FbmcaRZq7TFbfZXGb1Yj/bnsWwJJD4vJWUn+XpxA4t+oKS9FYs3fK3gGg2utStVJloLqf8AAAxOSURBVHCKotRYYNIc7PPCTNS5nAj2hYecnyEgaWiwwgMX8E3mSW3RWKXfR6bfF29bo4aASQCLoXvXkoH0pjq0uboRXdFhaLAoatV2tOO1gzvVfCsqaj2wfpUWrdTcKrmL4TT32lyWj/pOewRchgeLijJPVJTisS2qIkNG7Ud2rtcygQqs5IJFiQ2q6FiZn4lKe8fQsDDuYFGGgw+afOkdfF5Kashotq5AAF9lZmDBui/UfGvN51hIVRaHd6hhYBKHgTwcZPnS6TT8Pes4Kjrtmv+P5c/S70mn7J+e79M12HbSlRdyAkg6Z0msXU68sn+7AmvN51i26zuVCTQQVAwXybcsx1HkaAc96hLty9Kf2a9JUopez5agYrspA4tWvk/WVWPZlm+nNVwLN3yFp4/uUmtWBgWLhoYf5p5CbluT9rxfNDAMipRJBYsaEgyHsbHAMq2zhI/t26SGgAaFSkauj3JPIbvZCrd3uGrekBGLCXf19ODD9LRpGbUWqdIl00Rqilwf5J5EUXtLxDCP/VjKpEcsbkzT/5b2T7eqDCq0febYHtM4luy9p6tOcH2Sezo+YMkxJZHIMEgpbVifSHqSagnPNdThsW3rpk3kenTPRgWVCYaAshP5W+YxFDvaIxhgf5cy4SVNBKNsAOvUEKol3FWcj0c2r055uB7ashrPntirwDIRWLQ9wInGWvRGBRf2YSkNBRZB1xnw48vM1H52i54MfvLQdpWwMBFUr545gq0VhejuHVlcK4Fi3XBgEVytHjfeOX4gJaMWPTYzuI+FejJYDrGMrNNGPl8VWtDo6kb/hcjNOscagdG56IMWjRm+uFa3x9IQWt9q8bjx7J4tKQcXZQFpCKjKlpJbtjQRkN/POYlquw20T2Y0KLH4s/xOBFiyNCPUFx4qyeDSDJLShnVZvjGeLX1H2pBe47DjyR2ps1cGRavlh3eqeZWJhoA0ryp3dGj+PVl/Jp8mOJmPKau8kCTr5f09Xh9ymqx4etdG81fCr/0cj+7dqCKViaB6x5KOQkfbUJQisHgYJ6X0Y9b1/Jm+Q3CxTdLAoobQttHptVVYvnODqYeFS3asw/PqqWDTRGt6LiuzrQn0/CCDkFJgEeG+UAhplaVYZtLHTGhe9ZfjaiF4IvOaZNrSZjOnm60IhMNDUBFcKQcW/af8oRAOlBfjwe/MtYWallpPU6n1ZIIykd9+M/MoDtdWwB+1X0vKgkX/MUp1HqmuMA1c969bicf3bdbmVSoLaPwsIKXVD9WUg6qAyN+ij7hHLFrs4oOGZjQxiz74vJTUkGg7+ixtWKdt1fRsKYPCNiTptT67ivOwbMtaw8+5HqF5ldrJ1hTzqjczj4HeltJ7cXsy6XOsx9ufE76OJXsKAktmYEh3uN04VFGC5TuMm9B4eOu3qmTJJBnAd7MzkN5YF5GoiPY5+kxgSd9kXc+WYOTzUkp/NhxY2n8kFMKJmko8ZcBsoUpWGH/Yx/OuFdmD2T9/XyQ0erBMC7CoF6C3Op5vbcKfd6w3zLBw4Ub1NDA7rdElQXW+o0V72FZGFdKnNVh0A2idwdrdhWcMsC88bV/2ZJraEMboQFH7KKVe2tGGkFiwlXBNe7D4ZjS5XXj32H48uH4V7o/ar09uMTZVOkH15wNb8YLab93QyYpXzw5ua9bQ6dCiEiXM2IekTAhY8gdpUqb3o9KGdRqTxmpL/0E9W1kCwtclqWdr7XRgVeZJLNn4TUKHhvQkMO1boSorjD23oocUN1cUwh4YTqcn05+TWtI0EbAoZW/X0vH5CXsSmQprH9u7UaXVDZ4BfMdyAscaa9DVM/heLO6kFVhRC3Z6EYtSmXTD6ElkS5MVL+zbOqWRi6B6fN8mtR+gwaGixz5yWhs1v2CgWCqwJgAW3TRKajS7urEiIw0L1q+aEsAe26ugMnKigiopVuZlosHZCX+wR3cupcCaIFjcI3UHA1iTcwZLN8VvHw0qVVJPARt3PkU7Kf3t3FHsqSqBwzP4xkYezbBfsEwqWJSEMPPhCQRxorocL+/fjgXrJhe9Hlj3BWh3JVWqZEywXjmThk/zzyKrpQHeQNDQfmvIygvucaTUHjHxB0ZkDCnjSI/703rXN1mntMQGzY8mmnrXsn97NymoDDqnoqzflrICNHhcEeVJ5CNj+Yb0Idb15vDTpvKCbwLLWG4e7bp7ur4ab6btntCbTmid6omDW1VK3YBQ0Vzqs/yzWsLK5nLpzqVi8Q32I5IKLDH3ivXmhfoHtJ2gVltOY/HG8V/bunDDl3hSPVNlyIVfqkrfVVmiJSjcvsE91SUgrMfqG2yvwLoEsPjm0XM3uQ312m5Qo72ni2r/1HurjDefohfD0UsK8luaQC8ylCDw31dKBZYAhW6MLLOfqptnd7uxoyAXz+3egkXiCWXarfapI7vUBjAGGv5RSdLHeWeQ3liLLp8/Aij2DwkU64YEixtHMpnpSdkOvolSTialSsPDaocda3PO4pldG7F053q1T4WBgKJ5FC307qosRpXdpgFFsEifYF36BOuT8Q2+brxL9ExT0hSPm0evcM1vbMDO8iK8azmBlwzkXEZejJ3KtlE50q6KIpS0t6LT4xmKUgqsqBQ49wBSxqMINx5gca/U5fWi3NaGbeUFeCvzmCEn7lPpzEa4NiUmdlQXw+rugtPjiXiDPUUiBZYJweIhBCU4rE4HtlQW4fVzRxVgCYjgr589ik3lBWj1erT1KKN1uuwbLGWAYD2WNk+roSBHLL5pLKn2sNHjxs7qEu2tfgQZlc6ooWJ8MoavnTmM9ywZ2FZZBKvbhb6B4eekYnFSdmiS/DeTMp6jGXld0uVvsx5Lm2eQER/0aAYlMKIPPi8lOWm0HX2WNqxTWNezDV3cNYftWOrZ0s3j81LGs809fWE0u1041lCDr4sseDvzuIpilxjFqFP6e9ZxfFmQhbTactR02tGrswuYWXxD+lwsbU6JkibuSaSM7nnoM3UG0ob1aFsaIjZ3dyHf1oY9NWX4+PwZ0NqKEeYmRm/Dy2cO48OcU9hdU4p8WyscgcBQCVL0fabP1Iny30FK6kj17KUN6+ToerYEA9tIqWcbq2/E2mYF1ijDCy36DlwA7fDT6vMip70Fa0vztMpqNUSMHCLSsJmSQN8W5eBsY532rikf7Tsp9kYnx9ZzaAVWVJIi3oTLmy57F9aT3StRoS+thzW7unDcWoWV+Zl47ez0jmKvnj2Cf+ed1bZttjrtWpWE1+ePeWQQa+9vdN9gH5VRVkWsS+xJXT6f9sKyI7WV+Dw/E/QGC6rApkcbqAc3+pAt1vYNJnHStKEwpcjfsWRgVVGWVh3R6vPA5fWOiETTrdNVYMU4x5poT0q9tM3vR25HqzYnW12Si0/yzmjbcBFosTqxkeyoGoK2EaP50ldFFuypKdX26aNhMUVudiYZTVhXYAUwg4ZYfFAo0zv4vJR082K1DfWFdW3pGvKarOtdl96Wx+el1LOlf5M2rCeizfQAns3jQY3Tjty2ZhxrqNZeHP1lURZoE0lK5RsJNopIBBENa9/NTscXBVnYVlmIow3VyG1vRm2XE51+v/Zgod695nsrZSLus2yLEX1DrWNNYq2Ce22S3FtLSUsB1Lt7QyFtWy5aK6votCOjoVZ7tHxtcQ4+OX8a72SdwBvnjkz5EJIgevPcUbyXnYF/55/FmuIc7K4sRoa1BvltTaiytaPF1a21t48eIL0w/GI2SjLI/xvr8h6wTmDxeSn5vJSUuZM2rBOo0o51Pi8lQcbnpUxmmxVYUwiW3h+ckiCUzqfHIZweL+wuN5q7ulDrsKOmuxN5tlacaKzV0tVUEfJ1UTY+zTuL9ywntKEZrQ39LXNwAZuHjjRk+4flBP6RdRzvZafj41wavmVhY1k+dlYVa1HzfEcrarudaPG60RkMwBvqRZfHq82R3F4fvBeTU3ptJmdNppNKWCRQrBuxzQqsBIOlnDTy3VQqYkU9S6XCfaSDcO8ppRF7UjP2/mZss4pYKmJFzHFUZxC5YZGEmvVYoqxaxxol8ZCqFQEyorKjSElJA2nDejLLg7gNJGVbWTdimxVYCqwIZzWikyqwlJMqJ51AsTMBk6ojAxWxVGegOoMp6AwUWAosBdZUgEVZID5CfWHdUiA+LyWl22k8Hn1IG6lH29FnKkWRNqzr2Y5WJqPaPPz3o/und+/UfY70U/YzKePtz/8DaphOp2RR+pMAAAAASUVORK5CYII=;" vertex="1" parent="sfzHv9pNvOCN-W0HhA9W-7">
          <mxGeometry x="4" width="74.43" height="80" as="geometry" />
        </mxCell>
        <mxCell id="sfzHv9pNvOCN-W0HhA9W-6" value="&lt;b&gt;ElasticSearch&lt;/b&gt;" style="text;strokeColor=none;align=center;fillColor=none;html=1;verticalAlign=middle;whiteSpace=wrap;rounded=0;" vertex="1" parent="sfzHv9pNvOCN-W0HhA9W-7">
          <mxGeometry y="74" width="82.79" height="30" as="geometry" />
        </mxCell>
        <mxCell id="sfzHv9pNvOCN-W0HhA9W-10" value="" style="group" vertex="1" connectable="0" parent="1">
          <mxGeometry x="700" y="292" width="66.39999999999998" height="102" as="geometry" />
        </mxCell>
        <mxCell id="sfzHv9pNvOCN-W0HhA9W-8" value="" style="shape=image;verticalLabelPosition=bottom;labelBackgroundColor=default;verticalAlign=top;aspect=fixed;imageAspect=0;image=data:image/png,iVBORw0KGgoAAAANSUhEUgAAAL8AAADpCAYAAAB1PebsAAAgAElEQVR4Ae2d918UxxvH8zdJFRVbJHaxJYqi0STW+I0FYxKjJpqY2LtSLCj2EntHsWDsLSoCCjaKSBcBTX54vq/PHsPN7c3hHXe77O09P+xrZtnnjr3d9zzzPM88M/PJh3//o+qaWrfjXX0D4Zr+UMnW1L51k8Pn3ta9c/tefF7/nThvaHyvlG18/0Epr7oPvmfX98jP2fk8VGx8ggfEIDkbOTdY57OwOxsMv653Y/gZflJ1E540AZs9zu4VvSibas7nYWU2WPOz5tfM3lBssJ/A0URXrz+g+XFNf+jlxLleDud17+rdvhfyKln8P/Fdclnf0KiUl2VEne/Z9T3yc3Y+DxUbn3iKvkBY5QirIgjQGipZPHyVvEoWAKtk0W2q5FWyfM8ft9f5OTtNMp/hz528lR6N3MAHPwPzGRidQi/Xnm1Wkv4qRoafITYf4tY889Ep9HzpCaovq2H4ufcJod53VDIVzj9Itbkl9OHDvww/wx868OfN2EHVN57S+wbX0X6/zR44q/gS/QHnEdf0R+6k9ODoJlvTtfJnLPduc77ZRGWn71N1ZbUbowio6Pn0hWef4/yPGX7LAWLbXjAxmYozsqneQ+QRoKuifqroIJS5XpbhZ21vycac82UqvVh7lhrfOsabVEAz/AyvJeH1pzfKGSUiO9WatoZ5w/Az6LYDXd9IchSRHYafwbc9+GgI+TN2UNWNAvrQ6LTnDYMf3YneEcC5p1QBHuENnRCjXisbff543CYqOnSDqqudKQjg06iUDB7h5R7FGj3K6BQq3p5N1eVVbvY9w8+QWgNSA95DDnJ21mdSQ5V62ivDb8BDN7ob5+/3wkRMTG7K2XFEdlRRHYaf4bel5i+Yd4BqkLPTNKnIVPjh2PpycHqDF9qMG6pXDTVvagaVX39C797V+8SgL7y2JMsjvAyqV6AG2oTLnbiFXh28QZU6B1f0AHJpWKgT/0TV1aDFyDcg6pzbw5rf34aA1IWXWy9R1etKN/YEZ3LJ8LOGbhMN7S/obp8flUwv12VSdXG5G/hQwjL0os7wM/y2gP/ZkuPabCxEcFQWhwBeLhl+hj/o4X86ey+9LSjTtLsl4PfU1cDmV7VMTm9gm9/NlPFCMSGyU3o5h6qrajSuoM1l7S7qKuY4zu/FA27NS+HPGN+YEdkpOnTTJXWB4Wegg96U+ZjyyBmTSi/SL1JliauDy/Az/PaGPzFZW2en8sVrNxOa4Wf47Qt/YjIVLDhI78odNr7elrcE/Fi1QTUDHg6vfkUHnHN6g/E28sdMiWC4/uSH3VRTWKats6riqL6hUcmdShYOr4rR2rd1SkZVsiqeOb2Be5+A9z55U7dT6cWHWmQHMItIjlxaItSJG9J3STjn9AbW8K3pYZD+8urQDap645iUwvCzdg24dm0NmIZ/5ss0epl+gSqKypoVKsPP8IcE/AXLjlGlBD4sCIaf4bc9/E9+3ENVuli+5eGH44Gwk/6AzY9r+oOjPewLuJhPicn05Ic9VJFb5MYQmEJUR88QzsGXnjmcq2Sxw4+3svi8SlbFM6/ewL2SX71S3jRnZEeO5og6wo6qgAoAFTJyqZIF0LKMqMOkUsmL63IJ+PWyDD/D32r4tcjOwRtUVeaYlCLDJuoMPwPWasBcTAwrPUcsJLspiyqlSSkCeLlk+K300vheAtIQn/55hCpLK1xMCRl6UWf4GbiAAGeJXiAxmZ7O2UcVz0pdwIc9LYCXS0vDjxvVOwI4h4Mg/whR5wnsIRztSdxA+bN2UeXjV0o2VBxxnJ81vy00f9707VSS9ZDqPERfGH4G3Rag600sMRsLkR1PVgHDz/DbD/6myE7Va4eDy/Az5PaDXPVO4eD+cYQqXjpnY9kGfk9DyviBqmFiTm8ILYc3f/ZeqiwsdUk78MSGKjXBU7oBUhZU8irm8P9UsvUNjUpGVbKqe+YRXpW2479pvVrerF1U87jYLbIDkFT2vYgIyqWlQ534EfLNirqnH8jr9oSG5tfW2bn4kD58+NeND09sCHbkkuFnTRpU/kFO095YVeWVbuADbIafgQ4qoPWhS0/nWGfn+cYsqix1rLMja3FRZ/gZftvBn4PlRhYdpYrnztQFAbxc2gZ+2GQYgtYf+IG4pj842mNfm7/gl4NU+/S1yzvXc4FzT2yoZLG8iJ4hnCMio5JXySKqo5JFZEglr5JV3TMvXcI9mNaDPfl+F9XmltB7nYOriuoAJLknEHWVLEAU1+US8KvkZRlRB+QqWYAvZORSJau6Z4af4afcb9OpErue68AHUN6C5EmW4WfALOsf5Hy9kYoO36T6Ou+1uUqLMvwMuWUhV0Z3xqbS801ZVFH8RrOdZdNB1FnzN+2RigfC+fz2cHhzRqVQwdLjVP60WDNt/LWfg1Lzo2WLVi6X6NpUrZ5HeO0BPzZ/rmvaIgjvHba56n3LTIi6JzbEdblEo1J9L5xYWU7UVbJwjsV1ufT3njm3JwRNNSwkW5tf6hLZ8RckQCuDKeoMfwgCprSxLfAcHk/YTNW3n7mByvBLtr2nro3NnuA1e3K+2UQlR27R+3p3k4PhZ/iDK1rjQ0/y+KuNWs5OdUmFm9aHiRKS8EPD+3JwekMQav5RyfRsxUmqeVbm07v2hYtglOURXh+0p1Xt+I/dl7b5c+EbzcE1KlUAvYcqUoMeRTi/csnpDSEA3sfANPp63pRt9Pbp6+bIDsP/X3NjZM1v4waYN2ELVd142vyyoXkZfobfto6t6EkQ0iw7etctssPwM/y2hh/Jai82X6CGcveBJ4Zfgt/TyBy8d5UDw3F+a0d7ckan0IsVp+hdsWM3RP07NCpVwBNHPMJrY7tamBlWKZ/+uJfeFpZpDq4efJwz/LXNSp1ze2zUMB9P3KJFdkRIkeF3mjgqS4bhtwn8ed9uo6q/810iOww/w29r5xbmVu7EdEdkp8F1TivD/xH4MQIHp0R/oJvANf3B6Q3WcnhzxqbSq62XqL6i1u0d6t8dzmHz6981zrHKgkpeJeuJDZUsokuq761vaFTeh0rWqHvmQa4gNnu0yM7K01T93LmCsqzthe0vlxzqdPYGDH8Qw4/lRupelGvaXIZe1GXoRZ3hZ/iD3g9Azk7N/ZeagwuzQAAvlwJ4uWT4Gf6ghh+Rncorec3Jagy/E2g0dFkBiDr8FFkJoM5mT5CZPbnI2Tl2l943OGdjMfythB8PDl2h/kBLwTX9wdGetov25IxNoxfpFwmzseT3gnelf384l2VEHTuieCuLz6hkPbGhkkVUR/xvubTCPfMgV5Bo/hzMxlp2Qrn5M6DTd+meun8AqJJFiFGYCHKpkgW4soyoq2QR/hTX5dIK9+wz/DmT0+mfEevo4Yj1QW03WyUXx9v7KJizj2rzSiwLEsC2Pfybv/iJ1vX+jtL6TqfN/WY2H+n9v6ft/X+g7QN+pD3xP9P+gXPp8KBf6PjgBXR6yELKHPoHXfp8CV0btoLuDF9N9xLWciPystfJn5pB1bcKqdHDasVW0KIhAX+PmM4U3i6MIrQjnCLaOY6osAjqFB5NncLbU/fITvRZVGfqH92dBsfE0bAOvWlkx770dexAmtzlc5rZbQTN7TGGFvWcQGt6/4829Uui3QNm07HBC+jC54vp5vBV9GDEOu5ZRm7Qloes/DuP3jeNwsumg6gz/M5MTU+NUGWq+Wz2dGsfS+3atfP7iGwXTu3DorTG0i2io9ZY+kV3p89jetLYTvH0Xddh9GuPr7ReBj0JGsX9hLX0IITMrcdfb3REdhodOTtWtp89QWfle/Y51Bko+FtqQGHt2jX1LuGEHiUmPIo6hkdTz6jOND52EC2MG0c7B/xE54YuolvDV9uzh8CklPSLVFni2BsLcMEpVdnVcGJFLyCXKln0ErKMqANSlby4LpfQot7KWvmeLQl/Sw1Dvoaeo3dUV82cWvTZBNofP5cufbGErg9fSXcS1jT7FMHmnCNnp2DJseYVlAV4VgYJjUHcp1xa+Z6DGn65IaAO/+PTiE40qmN/mvPpGEruM432xc+hzKF/0o1hK4PDj8CmcL8coLI7BVRVXeMClJVBYvgD4AvogfbnHH5Fj8hOmrM9s9tIWtHrW9odP1uLOt1PsGa4NnfKNqq+XUjVVa7gQ5sy/K6Orb+mmq00f0sNJaxdGMWERVGvqC40vENvmtp1mBZpOjX4d7o9fA099DLs6G1cvjVyuRO2UEV2Lr1vVA8MMfwBhh8OkDzsLOqehp/NcHhbgjhQ1xCuhSPdPaIjfdmpPy3tOYnODvmjzUyjx2NSqfToHap/50hVEO9BX+J96Q+kLOjlcK6Xwzneq0q2vqFRKa+S9cSGStbTfVjhntss1BkoiAP5PdFhETQ05jNa3HMinRnyB90avqrZaW6NJvf2Mzlfil3PK5ptfFU0xcphQ5hlwXbPDL8HPwWh1TGdBmg9wsGB8+jyF0vovgEDbwC/YMlRKs8vagY/GEEKxntm+D3AL3oULYIU2YnGxQ6kJT0n0YGBc+nqsBWBGWxL3EBP5x2gN3cLqLra1Z4NNi3K8H8EJAFUsJYYcOsb3Y0mdR5Cq3pN8dtHyPsug95cy6cqRWSH4XcqA/gNqueBAAAanf5QycJP0cux5m9Fg4Wz3CE8WoscIWq0P34O3UXEyIfUi8dfpVFFdh7V1Xo/Oss2v+ukFb/hxwPFl+gPtBRc0x92ifYEsvfBeMKIjn1oU9+ZWsYq8o9aaggYwS3667r2zD09Z/37wDmWF9G/D5xDM6rkVbL1DY1KWUSCVPKq77XLPYdMnD+QsHv6LvQIA6I/pT/ixtOJwb/RjeGOUWWXhjAmlZ6lZFLVa0dkByCpuml9F41zgKiSBfwqeZUsIFfJAnyVvErWLvfM8LfC7PEEv/g7EvOQhDereyJl9JtF2V8s03oCRHYKlx2n8ieOXc8Bll1AQsNRNRQrN1iG3wD4RSNATxAXGUvjYwfTur5T6dqsdCq988TFwWX4XR1WVe9jVG/F8BsIv2gE6Am6xXan7xYtowPXr9LzUucKaww/w+/35BgBmlXLnv+bQkNSV9EXG9fQtL3b6PQ/97SsTYa/DeGHnabqavBSVDYcR3t8m8UWHhlJ3b4aS4OTV2rwowHgGJq6imb9tYsyHz2g56WlVKlLX1a9EzilqncCs0Alr5I1KmbuiSMr3zPH+Q00e8LCI6jL8OE0cM0SF/BFA0A5cvMGWnjiEJ19cJ9elJU1w62C2cogMfwGgmRVc8bjfYWFU8f4eOr/53wanOKq9WX4RS/w1bY0WnrmGJ179A+VlFcoNTnDH+BBLk8tls0e38wbfSOIjoujPr/MpsHJKzxqfX0j+DxtNY3bvpFWnj1BOSXFzWtxil6A4Wf4Le8cR8bEUK9ZSW52vh52T+doBON3bKK9N69RxVvnwBbDH2D4oeF9OdjhbblHCIuIoB6TJrYafLlBDE1bTd8f2ElXn+ZTRU0NYQKIL++KZVtmm+P8AfRTwiOjqNuYL2nQ+uVemzoy7J7qCZvW0urMk3SnsIDeNrinQ3B6g2uPoIpyQREI81GUDH+A4A8LD6cuw4bRoLXLAgq+aBAYH5i+L4P+unOTSmuqXV4kw8/wt50vEBamRXb6eRHZETC3poQZNHprMi08cYTuFxdR44d/tUbA8DP8bQZ/+7g46vvrzx8NabYGeNVnJu7PoDmXTtKhvAdU+c6xh4Kqqxfdu1walSeD/6G6B05sC5BpoQ8nWuE8smMn6pk0zRTwMSr89e4tlHT2ICWdO0zfnz9Ca29fpoclRVShGyH2FMJm+J29BI/w+tEwwyMiKW7yRBq8wftYvkqTe/M3gD8qI5WmnthHM88d1uBHA8Dx+5UzdK4wn97UOcOinjQxpzc4c4kY/lbCHxYRSd1Gj6ZB64xxcPUNYkT6BppydI8b+KIB/HThGG25d50el5dRQ9PEFJUZwvAz/H75B2Fh4dRlRAINWrPUkMiOHnw4ulOO7PYIvmgA6BGWXDtPWc/yqaq+XmmDM/wMv1/wdxwwgOIX/24a+N8e2qWZNzPPH3ExdwT0+nLuxRO0N+cuFUqJcqIXYPgZ/lbDH9MjjvrNn2uOg5u2mibs3+YV8PoGgPOlV89rOUJV0vIeDL8EP0JRyBnRHxgRwzX9EcrpDZGxsdQzaapPyWp6E8bbc5g6Y3ZtphlnHJEdFdze/O3XS6fpUkE+va6s0t4l4Ne/a5xjZQj9u/aVDdX3Irqk+t76hkblfahkjbpnHuH10uGNiGpPcZMmBDx1QdUYENlJ3K6O7HgDvF7m54sn6HDeAyqurSFAJ0wguQS48niAqMsyoq5KFfAUXQLM4rvkEkCL75NLWUbUjQrPMvzewB8WRt3HjqVBa81xcLXIzpHdrTZ39PDj/KcLx2nL/euUX17mtukF4GP4JdvQU+sORbOn6/CEFmdjqbR3a/+GdObvju6hpEzXWL4KaF//Nuv8EVp6NYtuvSh007oMP8Pv5gh37Nuf4pf/aUpkBw1m0l87AqrxVQ1k9oVjdOXZE5cGwPAz/M3wh4WFUUzcZ9Rn3mxTIjvQ+IjsIGVBBWyg//Zj1jE6nvuASiocK8eFJPxwPOBQ6A+YPbimP0LF7Inu3IV6zZxmTuoCIjs7N/od2fG1gcy+cIIO5Nyj4upqqlW8a1/Z0DOE8/qGRjeG8L3gSyWv5w3nmMTjrawv98zpDQqHNzwqinogsmNQbr7eH0hsytnxFd5AyM++cJy2P7hNBWXOhbQ+Fn0BuLKMqIvojFyiRxHX5RIwy3KiLsuIOoAW1+USkSQhI5eyjKir7pnhV8DffcwY01IXEtLX0/+O7aWkzEOmmDuqBvND1lHacPMyPX/zxg0mAY9cqkACfLKMqDP8CsCskI6suofOQ4bS4ABPQ9RrenGO2VnI2VEBafbfkDrx55VMelJa4tIABMRyyfAHEdAqyN3/Fkad+vaj+OV/mBLZwQjueD9SF4xqHIv/zqSHRa+aV5CToRd1ht9G8DsiO3HUZ95PAVl1QWh2TyXA/2ZvOn2vy8s3CmhfvhfRplXXLtD9ohdaAxDAy6Vt4MePkp0FUccPlH+wqNsx2hPdBZGd6aaYO1rOzs5NNONM29n4H2sMM88dobW3LlNuuXP5RMEFSk9syDKizukNFu4lsNxI3ORJpkxKAfijt6fRtJMHLGHnt9QI0AOsvnmRHpW4bpHK8FsYZndbvuVFpronJmrgf2w9TU8mjLd/R7Iacna+bWE2VkswtsU1TI5ZcPm0lhYtNDnDbwP4MRurU/xAGmhSLB+RncmHdhJMirYA2Z//uegKnOCXJOYFsNkTzA0A6+z06UsDTcrZEZEd/cRzf4A087MOJ/giPSou0pxg28CPkTbVkDJ+oGpI2Q4Or7bOzrzZpoU0v9m7lb4PQo0vN7BZ549S2u2r9KSsLCDpBkhZUHGnYg4sqmTrGxqVjKpkVTyH3AivI2dnuimTUuAPjNm5iaafOUjezr+VgbNa/YfzR2nLvRtUWl2tjBCKiKBc8givRUyksMgo6jFhgikhTYA/KiOFpp6wfmTHl0aGHmDz/ev0pqrKrQHI0Is6w28B+DGQ1TVhpCkaH5GdBG2dHWukLvgCtzey6MX2PLxN5boGIICXS4a/reEPC6PYAQMpfrXnvbG8DVl6Izd88zqadHDHR9fZ8QY0q8ogG/RU/kMqq3T2ADL0os7wtyn8YdSxbz8asGShKQ7u5xvX0Pj9GTTTgGmIVmsIv2efpsuF+c09gABeLi0NP25OtVwEvGNc0x/BFu1p3yOO+poY2Rm/byslnbVu6kIgGxBCt0uvZdHjslKq97BECZZE0TOEc0RkVNypZBHVUckiMqSSV8mqeLb16g3RsZ0dOTsbltOQFMf+t96YLa2RgZ0/Fjk7TSsoBxIyK38XBu3W387WFsmVR4FFHSDKPYGoA34hI5fiulwCcllG1AG+LCfq4rpcAn5xXZS2hd8R2RmvTUM0OnUBjWXk1hSaevKvoBu9DVTD2v7wNlUoQqAMv8k2vyOyg+VGTFpnZ6tYQTn4UhcCBT9GgU/mPaTyKtcxAIbfTPjDwqjTgHgatHKRKQ7usM1rm3J2Ar/OTqDANOt75lw8QX8/K2ieCAOzg+E3Ef6O/frRABNXUNZmY2UessUIrr+NBA7wiusX6GHxq2Yb3dLwo3UKB0Au4SDIDoOoWznaE/NpD+o3f44pGh92PnJ2jFhZzV8I2/LzmAy/6+Ftba8w8ASnVLAjl3BiZd5EXZYRdTjH4rpcomEJGbmUZURdxbNtcnuwNxZmYw1JXmkK/GN2bKLvzx8NWQe3pQaGAbDLLwqp4YMjVC6DKeoMf4DMoYj27anHhHGmLDAFjZ+4LYWmn7JXzk5LMLfm2sIrZ+lpZTlrfl9nV/kir20RlJBAA1ctNkXjj9yarO2N1RogQu0zafeuUlVdndI0Yc0fAM3fedBgGrDU+NQFTEhBzg5mY7XlAlPB1IAQ/jye/4gqdOFPmD6WgB+OgC+HlRzeDj17U7xJOTuAf8L+7Qy+j8ut/HLpFN0rfuUTY77w6I9s0I7wtu/2KfVbYM7eWLDzx2mRndDI2Qlk74Lw54bbV6iirs4lYsPpDa0wezB6i8jOZ9j13ITNnwH+6IzUoJ+GGEigff0ubIt0tiCP6qVcHIa/FfBHto+hHuPHmbKC8tDU1ZSYwZEdX2FXyS+9dp4ev3lN7//9T+sBGH5f4Q8Loy4jR1D8CuN3SoGNPyI9maYc28OxfB/tfBX8cH6xN3BNgyO7kuH3Ef7OmI21bKHhO6UgPXn4lnU0+fBOBj8A4IvGMPfSKfrndbF1ND/CTmIIWC7hRYvROLlsq2hP+x6fmTcbC5GdAxmcuhBA8EUDWH39Ir2pqrZGqDMY4I+O7UL9f//VlEEsaP1vdm9hB9cA8NEAMPk980kOw+/NSC4iOz3NjOxsT+NYvkHgC+0/9+IJellVpbQ4ZCtD1OEfyFaJqNs6sS0ypoOWszNwjTmrLozKSKMZp0N3NpaA0+gS2v9Azn16p8jsFMDLZejBHx5OXUeOpIEmTUpBzo62N5bBWs9osILl+5H4lvumzE2jy9CLumHwo+tQzYCHw4tr+sMshze2/wAtZ8eM+bfI2fn28C5br7NjtUbxQ9Yx2p9zj6rf1bvwp+cN54BfxShWhlDJq2RVPFsyvSGm66cUv2Kx4SFNjN5inZ1v9m1l8Nugx/vjylm6W/TCJaoo7Hm5RBKc6AXkEpDLcqIuy4g64BfXRWk5+KO7dKV+8+eZEtkB/F/v3kyzgnwFZatpdW/vR1v28J/bVFpZ2Qy3AFMuQwL+yNhY6jljmnmzsXZuoqQQW2fHWzDNkluYfUbb+EJoaBl6Ubc9/JExjpwdRHYGG73AVNpqbQXl6RzZafMRbKz6fPDRXaqsqdW0vwBeLm0Nf1h4BHVDZGfVIsPtfOTsaLOxsOt5G9i5/D/dl3iZf/kUvSx37P4uQy/qhsEPTxpfrj/gIOCa/jAi2hPTuw8NWPan4eDDxndGdkJ3gSkrNsBj+Q81BvW84Ry7uOj5xLlKFn9Tyap4bvPVG6I7d6WBJs3G0lZQRs4Oa3zLPYN5l056XO8TQIteQC4R5hS+glzKMqIO+GUZ1NsU/uhu3aiPSSsoOyI7W0JmBeVgbODnCvNdVnsTsNoOfm0F5aRpNCTF+HV2kKz25Y6NNOPMQctpvGCE1Kh7XnPzMhWVl7tpaFvBH66tszOeBq9bZko8H9MQObLj7mgaBXFrv3fepVN05dlT+8IfHhFB3UaM0NbZMSN1AbueTz2xjzV+EPg5mO217e51KtctdW6Y5odDIGwruVQNB0PW32hPh959KH6Z8dMQYeMPa8rZaa0m4s+Z31ssuXae8ireuDi4iN7IbIp6UKU3dPg0jvr99ospps4XG9fwbKwg0PZ6BTP74nG68OwJNXz4t7kBBD380V27Ut95P5sCvhbZ2ZPODm4Qwo98n633b7qs8xPU8Ed3iqVemI1lwgrKiOyMQWTnNEd29Fo1WM5/yz5NTyTTJ2jhD4+Kph4Tx9OgdctMGcEdlZFKSRzSDGoHH9o/qzCfGptMH8PgxxfDm9YfcHhxTX/44vCGh0dQ92HDTVtBOWHzOprBS4cHNfiid1p/6zLVNKU1qFITwGt9Q6Mbn77wbOgIb0fMxlr8m+F2/tC0pnV2juy2xYsXAIRy+WPWUcovLdaiPIaFOhE2EvkPcqnKhYCst5q/IzZ/nm/8QrKw8TmyY35I0uiGiQVuj+c+CD74ozp3pf5zZ5ti4wP+rxHZ4Ukptuv1ll/PovKqKs0klxWzqFsusS0qpgP1mjnDlMgOQppfbk/jkGYQhjS96Tkw0SWvtDg44MeklM8mTaQhJi0dPjI9mSee2xR80ThO5j8yDn4MEauWf4DNr1oCwpPNHx4ZSV1GmLOCMjR+QvoG+u44z8YSkNi1TL3zt7ari4pRRHZUjKpkVTwHbPWG2PiBFL9ogSl2fsKW9TT58C5eVtDmWh8N+rfsM1RSU23d3J4O3XtQ3/lzTAHfGdnhLYLsqu3l34V1PW/q1vaxTGJbdKfO1O+Xn01xcBHZ+WYvIjsMvgyInes/nD9KR3IfKGd4tWlWZ3hEJPX6cZYpGh92PjZ/nsng2y6k2VLjnXnuCG25e91lYas21/zhkVEUN34cDV6/3IQR3NWUuDWZks6wxm8JFLteW3n9Aj0pLXGz+/3W/K0Z4XVEdhJowHIsN7LKcPgxG4tXULbfKK63jRVOr9jOSAxwoTR9kKt7h87UGZGdP42P7Gi7nm9ZT5O0Xc9D9+V7C4ld5X66cJwuPn/avJOjaACmw9+zdzz1WzDPFDt/2Ka1NP5ABju4IRDSbKnhIs/ncP4DqtNtZmE6/COWLjYnspO2mr7es4VmZrLGbwmMULm27Z+bVPHOdRd30+H/KiPNcBtfi+xkpHKyWohrfLlhr8mbnhkAAAO3SURBVL55iV7VVLtkIPsNP4Z9fTm+2pZqKPyI5SduS6YZp3hvLPnlh3p9QfZpevy6xCdWP8a1z+kNYw2GX1tn5/hebcvKUH/h/PudJi8mt1x7/pSqmpYyR5TS71AnPGcxaCCXaDXCq5ZLI+FP4F3PQ2oAy5fGPSvrKGXm57iM9NoGfuTsILKTxA4uNwAPvs6BR3e0yS1CSdsCfsTzEdlJOuvs5nzRCiwbGs9t892rVFZV1Wyp2AL+0ZiNxVsEscb3oPGFclt+LYtKKpyb1/kNP7oQ2aYXddj8onuRy0CHOkduTaGpJ/fzi//IixcAhHKJrUvLpVi/36HOtoR/xNZkno3F0Hut+OZdPklFtTXNyjpo4cfeWFN4nR2vX3woa3zx23+8cIwKqiqCG37H3ljbeBoia32fG/+jstLghR+RnbG7N9OMzEM8kMXw+wz/taLngYMfdhO8Zv0BhxfX9Ic/6Q0Af/SONJrO62n6/NJF1x/q5bmCvGZWa9/WufHpC8+mpjeM3JbKkR3W9n41/MOP7zVHIf0OdSK0KYcyRT3Q6Q1YbmTqCQ5phrrm9vf37354q5nXoIAfqQvfHsE6O6ExEunvC+bPe+Zk691rwQE/bHzHOjvbGXw2d/wyd4RC2HDrcnDAj5AmVlBO4uVGAvLiBQChXG64lR04+LHwv373FZzD5tfv1oJzb6M9mJQyZucmbfNnbDMTyi+Mf7tnM8bXZ5Ny5+9mXlV8+sKzzzuzeJvbg0kpCGli8rGvP5Dl+Zl5YmD97ezAxfl9ze3ZmH2e1mSdcjlWnz9FK84edznWX7tAyXeuUMrdv90O7LekPzbcznaTw2dh4+llca763uTb2V7Lpty5opTle3Z93lZ7zvty7rYd/CLrUy4RchIhUrmE+STLibosI+rorsR1ucSghZCRS1lG1D1loorrcsn3/J/L8w7F5+yz2SMDJOoMEoMExSR4kEsrs8HwSxOi8QK5t6p16WllkEXdLj2sz+kNsukh6ugyxYORS5gyQkYuZRlRB3SyjKhDcwgZuRTX5dLTqLQsI+p8z66Qh+JzZvj/dTVZuMG6Pg+hLOTSLkqG4Wf4tR6XNb9k/9qldcNUkrWWqLPZw2YPa37W/KGr+eFows7VH9D8uKY/9HLiXC+H87p39W7fC3mVLP6f+C65rG9oVMrLMqLO9+z6Hvk5O5+Hig0OdUqmHkwiACNHlURdmEtyiUYnrstlKA4Y4bnIz0DUOc6vMy1kgESdQXK1wQU8cmllkIIR/v8DDfqCtuHI8soAAAAASUVORK5CYII=;" vertex="1" parent="sfzHv9pNvOCN-W0HhA9W-10">
          <mxGeometry width="66.4" height="81" as="geometry" />
        </mxCell>
        <mxCell id="sfzHv9pNvOCN-W0HhA9W-9" value="&lt;b&gt;Kibana&lt;/b&gt;" style="text;strokeColor=none;align=center;fillColor=none;html=1;verticalAlign=middle;whiteSpace=wrap;rounded=0;" vertex="1" parent="sfzHv9pNvOCN-W0HhA9W-10">
          <mxGeometry x="1" y="72" width="60" height="30" as="geometry" />
        </mxCell>
        <mxCell id="sfzHv9pNvOCN-W0HhA9W-11" value="" style="endArrow=classic;html=1;rounded=0;exitX=1;exitY=0.5;exitDx=0;exitDy=0;entryX=0;entryY=0.5;entryDx=0;entryDy=0;edgeStyle=orthogonalEdgeStyle;" edge="1" parent="1" source="tSHxOHQZL74azQnE-G1b-1" target="sfzHv9pNvOCN-W0HhA9W-2">
          <mxGeometry width="50" height="50" relative="1" as="geometry">
            <mxPoint x="400" y="350" as="sourcePoint" />
            <mxPoint x="450" y="300" as="targetPoint" />
          </mxGeometry>
        </mxCell>
        <mxCell id="sfzHv9pNvOCN-W0HhA9W-12" value="" style="endArrow=classic;html=1;rounded=0;exitX=1;exitY=0.5;exitDx=0;exitDy=0;entryX=0;entryY=0.5;entryDx=0;entryDy=0;edgeStyle=orthogonalEdgeStyle;" edge="1" parent="1" source="tSHxOHQZL74azQnE-G1b-2" target="sfzHv9pNvOCN-W0HhA9W-2">
          <mxGeometry width="50" height="50" relative="1" as="geometry">
            <mxPoint x="570" y="520" as="sourcePoint" />
            <mxPoint x="620" y="470" as="targetPoint" />
          </mxGeometry>
        </mxCell>
        <mxCell id="sfzHv9pNvOCN-W0HhA9W-13" value="" style="endArrow=classic;html=1;rounded=0;exitX=1;exitY=0.5;exitDx=0;exitDy=0;entryX=0;entryY=0.5;entryDx=0;entryDy=0;edgeStyle=orthogonalEdgeStyle;" edge="1" parent="1" source="OpV2UFvNa62Xhtrnb1xq-22" target="sfzHv9pNvOCN-W0HhA9W-2">
          <mxGeometry width="50" height="50" relative="1" as="geometry">
            <mxPoint x="400" y="350" as="sourcePoint" />
            <mxPoint x="450" y="300" as="targetPoint" />
          </mxGeometry>
        </mxCell>
        <mxCell id="sfzHv9pNvOCN-W0HhA9W-15" value="" style="endArrow=classic;html=1;rounded=0;exitX=1.038;exitY=0.62;exitDx=0;exitDy=0;exitPerimeter=0;entryX=0;entryY=0.5;entryDx=0;entryDy=0;edgeStyle=orthogonalEdgeStyle;" edge="1" parent="1" source="OpV2UFvNa62Xhtrnb1xq-17" target="sfzHv9pNvOCN-W0HhA9W-2">
          <mxGeometry width="50" height="50" relative="1" as="geometry">
            <mxPoint x="400" y="350" as="sourcePoint" />
            <mxPoint x="450" y="300" as="targetPoint" />
          </mxGeometry>
        </mxCell>
        <mxCell id="sfzHv9pNvOCN-W0HhA9W-17" value="" style="endArrow=classic;html=1;rounded=0;exitX=1;exitY=0.5;exitDx=0;exitDy=0;entryX=0.5;entryY=1;entryDx=0;entryDy=0;edgeStyle=orthogonalEdgeStyle;" edge="1" parent="1" source="sfzHv9pNvOCN-W0HhA9W-2" target="sfzHv9pNvOCN-W0HhA9W-6">
          <mxGeometry width="50" height="50" relative="1" as="geometry">
            <mxPoint x="400" y="350" as="sourcePoint" />
            <mxPoint x="450" y="300" as="targetPoint" />
          </mxGeometry>
        </mxCell>
        <mxCell id="sfzHv9pNvOCN-W0HhA9W-18" value="" style="endArrow=classic;html=1;rounded=0;exitX=1;exitY=0.5;exitDx=0;exitDy=0;entryX=0.5;entryY=0;entryDx=0;entryDy=0;edgeStyle=orthogonalEdgeStyle;" edge="1" parent="1" source="sfzHv9pNvOCN-W0HhA9W-5" target="sfzHv9pNvOCN-W0HhA9W-8">
          <mxGeometry width="50" height="50" relative="1" as="geometry">
            <mxPoint x="700" y="560" as="sourcePoint" />
            <mxPoint x="750" y="510" as="targetPoint" />
          </mxGeometry>
        </mxCell>
        <mxCell id="sfzHv9pNvOCN-W0HhA9W-19" value="&lt;b&gt;Ship&lt;/b&gt;" style="text;strokeColor=none;align=center;fillColor=none;html=1;verticalAlign=middle;whiteSpace=wrap;rounded=0;" vertex="1" parent="1">
          <mxGeometry x="428" y="306" width="60" height="30" as="geometry" />
        </mxCell>
        <mxCell id="sfzHv9pNvOCN-W0HhA9W-20" value="&lt;b&gt;Filter and Transform&lt;/b&gt;" style="text;strokeColor=none;align=center;fillColor=none;html=1;verticalAlign=middle;whiteSpace=wrap;rounded=0;" vertex="1" parent="1">
          <mxGeometry x="550" y="240" width="70" height="30" as="geometry" />
        </mxCell>
        <mxCell id="sfzHv9pNvOCN-W0HhA9W-21" value="&lt;b&gt;Visualize&lt;/b&gt;" style="text;strokeColor=none;align=center;fillColor=none;html=1;verticalAlign=middle;whiteSpace=wrap;rounded=0;" vertex="1" parent="1">
          <mxGeometry x="730" y="200" width="70" height="30" as="geometry" />
        </mxCell>
      </root>
    </mxGraphModel>
  </diagram>
</mxfile>
